<svg width="120" height="40" viewBox="0 0 120 40" fill="none" xmlns="http://www.w3.org/2000/svg">
<path d="M110.57 0.50013H110.135H9.53468H110.57ZM110.57 0.50013C110.786 0.500323 111.002 0.500802 111.216 0.501992L111.219 0.002M110.57 0.50013H110.635V0.000196401C110.83 0.000425702 111.025 0.000922715 111.219 0.002M111.219 0.002C111.467 0.00359168 111.721 0.00778841 111.972 0.0119309C112.028 0.0128635 112.085 0.0137933 112.141 0.01469C112.811 0.0221378 113.48 0.0812328 114.141 0.19145M111.219 0.002L111.216 0.50199C111.462 0.503564 111.712 0.507708 111.963 0.511847C112.019 0.512784 112.076 0.51372 112.133 0.514632L112.135 0.514659C112.779 0.521819 113.422 0.578607 114.058 0.684519M114.141 0.19145L114.057 0.684367C114.057 0.684418 114.057 0.684469 114.058 0.684519M114.141 0.19145C114.804 0.30437 115.448 0.515697 116.049 0.81845L114.141 0.19145ZM114.058 0.684519C114.671 0.78903 115.266 0.984402 115.822 1.2642M114.058 0.684519L115.822 1.2642M115.822 1.2642C116.93 1.83384 117.832 2.73613 118.402 3.84445C118.68 4.39814 118.873 4.99094 118.973 5.60255L118.974 5.60465C119.081 6.24118 119.141 6.88481 119.152 7.5302C119.156 7.83305 119.156 8.1374 119.156 8.44447L119.156 8.45523C119.164 8.81125 119.164 9.16913 119.164 9.53626V30.4649C119.164 30.835 119.164 31.191 119.156 31.548L119.156 31.548V31.5587C119.156 31.8695 119.156 32.167 119.152 32.4738C119.141 33.1192 119.081 33.7629 118.974 34.3994L118.973 34.4018C118.873 35.0135 118.681 35.6064 118.402 36.1601C118.119 36.7095 117.752 37.211 117.314 37.6463L117.311 37.6492C116.876 38.0878 116.374 38.4538 115.824 38.7335C115.267 39.0144 114.672 39.2112 114.058 39.3176C113.422 39.4226 112.779 39.4794 112.134 39.4874L112.13 39.4876C111.828 39.4943 111.519 39.4981 111.219 39.4981L111.216 39.4981C110.858 39.5001 110.494 39.5001 110.135 39.5001H9.53468C9.16778 39.5001 8.80681 39.5001 8.44268 39.4981H8.43995C8.13807 39.4981 7.83808 39.4943 7.532 39.4875L7.52759 39.4875C6.88185 39.479 6.23765 39.4222 5.60039 39.3176C4.98864 39.2122 4.39619 39.0155 3.84285 38.7341L3.84229 38.7339C3.29087 38.4543 2.78791 38.0881 2.35262 37.6491L2.35264 37.6491L2.34872 37.6452C1.90982 37.2122 1.54397 36.7109 1.2654 36.1609L1.26517 36.1605C0.98402 35.6068 0.789245 35.0133 0.687609 34.4007L0.687419 34.3996C0.580367 33.7634 0.52276 33.1198 0.515115 32.4747H0.515196L0.514927 32.4657C0.508722 32.258 0.506349 32.0579 0.503897 31.8511C0.502749 31.7543 0.501584 31.656 0.5 31.5548V8.44844C0.501607 8.34704 0.502782 8.24764 0.503943 8.1494C0.506379 7.94341 0.508754 7.74249 0.514921 7.53874L0.515006 7.53874L0.515115 7.52953C0.522757 6.88439 0.580364 6.24082 0.68742 5.60457L0.687563 5.60371C0.7895 4.99135 0.984296 4.39814 1.26522 3.84456L1.26566 3.8437C1.54455 3.29151 1.91061 2.78786 2.34974 2.35213L2.35117 2.35071C2.78884 1.91292 3.29228 1.54627 3.84323 1.26403C4.39627 0.983685 4.98842 0.788365 5.59972 0.684667C6.23686 0.579183 6.88111 0.522395 7.52688 0.514795L7.52688 0.514799L7.52891 0.514767C7.59386 0.51374 7.65832 0.512677 7.72241 0.511619L115.822 1.2642ZM0.19435 34.4825C0.0830134 33.8209 0.0231008 33.1516 0.01515 32.4806C0.00880994 32.2684 0.00634396 32.0608 0.00385846 31.8515C0.00270592 31.7545 0.00154917 31.6571 0 31.5587L0.19435 34.4825ZM0.19435 34.4825C0.304336 35.1455 0.515108 35.7877 0.81935 36.3868L0.19435 34.4825Z" fill="#A6A6A6" stroke="#323C5C"/>
<path d="M7.54706 38.6146L7.55179 38.6146C7.85096 38.6214 8.14448 38.6252 8.44485 38.6252L110.134 38.6272H110.135L111.218 38.6252H111.219C111.512 38.6252 111.815 38.6214 112.105 38.6147L112.11 38.6146C112.711 38.6073 113.31 38.555 113.903 38.4582C114.433 38.3681 114.947 38.1988 115.427 37.9559L7.54706 38.6146ZM7.54706 38.6146C6.94627 38.6068 6.34689 38.5545 5.75381 38.4583M7.54706 38.6146L5.75381 38.4583M5.75381 38.4583C5.22731 38.3673 4.71728 38.1986 4.24048 37.9574C3.77116 37.7199 3.34309 37.4084 2.97269 37.0349L2.97272 37.0348L2.96805 37.0302C2.5929 36.6617 2.28057 36.2343 2.04343 35.765L2.04303 35.7642C1.80154 35.2883 1.63441 34.7783 1.54748 34.2518L1.54741 34.2514C1.44868 33.6565 1.39526 33.0549 1.38762 32.4519H1.38769L1.38743 32.4432C1.38441 32.3426 1.3808 32.1188 1.37791 31.9155L1.37437 31.6518L1.37335 31.5696L1.37308 31.5471L1.37302 31.5422V8.4478L1.37308 8.44324L1.37336 8.42103L1.37444 8.34014L1.37811 8.0809C1.38107 7.88142 1.3847 7.66174 1.3875 7.56444L1.38757 7.56444L1.38767 7.55612C1.39499 6.95416 1.44809 6.35363 1.54651 5.75972L1.54657 5.75937C1.63372 5.23114 1.80106 4.71933 2.04282 4.24166L2.04324 4.24081C2.27975 3.77129 2.59066 3.34313 2.96393 2.97293L2.96393 2.97294L2.9658 2.97107C3.33964 2.59635 3.7699 2.28255 4.24092 2.04109C4.71617 1.80112 5.22473 1.6338 5.74963 1.54472C6.34472 1.44747 6.94626 1.39489 7.5492 1.38742L7.54977 1.38741L8.44871 1.37524H111.21H111.214L112.12 1.3879L112.121 1.38791C112.718 1.395 113.314 1.44709 113.903 1.54372C114.434 1.63401 114.948 1.80261 115.43 2.04401C116.373 2.53078 117.141 3.30014 117.625 4.24455C117.863 4.71838 118.027 5.22535 118.113 5.7483L118.113 5.74927C118.213 6.34834 118.269 6.95387 118.28 7.56105C118.283 7.8408 118.283 8.14182 118.283 8.44458L118.283 8.45511C118.291 8.82403 118.291 9.17582 118.291 9.53637V30.465C118.291 30.8293 118.291 31.1782 118.283 31.5292L118.283 31.5292V31.5402C118.283 31.8657 118.283 32.1603 118.279 32.463C118.268 33.0589 118.213 33.6533 118.115 34.2413L118.115 34.2442C118.03 34.774 117.864 35.2876 117.623 35.767C117.383 36.2318 117.072 36.656 116.701 37.024L116.697 37.0279C116.326 37.4033 115.898 37.7165 115.427 37.9556L5.75381 38.4583Z" fill="black" stroke="#323C5C"/>
<path d="M24.2689 20.2944L24.2689 20.2944L24.2689 20.3014C24.27 21.3384 24.5764 22.3522 25.1498 23.2162C25.6375 23.9513 26.3002 24.5504 27.0752 24.9616C26.7559 25.8647 26.3139 26.7204 25.7611 27.5043L25.761 27.5042L25.754 27.5146C25.3037 28.1883 24.875 28.8023 24.391 29.2543C23.9172 29.6967 23.4236 29.9522 22.8411 29.9617L22.8411 29.9617L22.8377 29.9618C22.2384 29.9756 21.8461 29.8086 21.3421 29.594L21.3292 29.5886C20.8053 29.3655 20.1923 29.1105 19.2582 29.1105C18.3235 29.1105 17.7034 29.3462 17.1681 29.5698C17.1333 29.5844 17.099 29.5987 17.0653 29.6129C16.5887 29.813 16.2089 29.9724 15.659 29.9954C15.1427 30.0141 14.6424 29.7578 14.1232 29.2705C13.6034 28.7826 13.129 28.1244 12.6623 27.4572C11.7766 26.1624 10.9808 24.3231 10.643 22.4075C10.3043 20.4872 10.4356 18.552 11.3229 17.0157L11.323 17.0157L11.3269 17.0088C11.7313 16.2819 12.3172 15.6723 13.0273 15.2392C13.7366 14.8066 14.5457 14.5649 15.376 14.5376C15.975 14.526 16.5754 14.7289 17.1884 14.9709C17.2636 15.0006 17.3401 15.0314 17.4172 15.0623C17.6399 15.1518 17.8668 15.2429 18.0768 15.315C18.3593 15.412 18.6686 15.4959 18.9714 15.4959C19.2804 15.4959 19.6148 15.3933 19.9164 15.2844C20.0817 15.2248 20.2776 15.1472 20.4754 15.0689C20.6269 15.0089 20.7797 14.9484 20.9206 14.8952C21.6334 14.6261 22.3663 14.4132 23.0821 14.4883L23.1003 14.4903L23.1186 14.4908C23.8282 14.513 24.5227 14.7004 25.1472 15.0379C25.6232 15.2953 26.0484 15.6345 26.4041 16.0388C25.8255 16.482 25.3401 17.0379 24.9785 17.675C24.5249 18.4743 24.2808 19.3754 24.2689 20.2944Z" fill="white" stroke="#323C5C"/>
<path d="M21.6531 11.8911L21.653 11.891L21.6476 11.8978C21.3064 12.3222 20.8733 12.6636 20.3811 12.8963C20.0377 13.0587 19.6717 13.1652 19.297 13.2129C19.3176 12.8373 19.3895 12.4655 19.5112 12.108C19.6862 11.5934 19.961 11.1184 20.3198 10.7101L20.3199 10.7099C20.9376 10.0064 21.7577 9.51884 22.6606 9.30902C22.614 10.2512 22.2632 11.1587 21.6531 11.8911Z" fill="white" stroke="#323C5C"/>
<path d="M42.7759 26.9797L42.6609 26.6399H42.3023H37.5689H37.2103L37.0953 26.9795L36.0736 29.9964H35.1394L39.2617 18.5784H40.6426L44.765 29.9964H43.7967L42.7759 26.9797ZM37.5857 25.4303L37.3612 26.0911H38.0591H41.8111H42.5089L42.2846 25.4303L40.4349 19.9831L40.3198 19.6438H39.9615H39.9097H39.5515L39.4363 19.983L37.5857 25.4303Z" fill="white" stroke="white"/>
<path d="M51.3814 30.091H51.3683L51.3553 30.0917C50.8734 30.1169 50.3941 30.0059 49.9724 29.7714C49.5507 29.5369 49.2035 29.1884 48.9707 28.7658L48.9422 28.7141C49.4362 29.2246 50.0967 29.5158 50.857 29.5158C51.7314 29.5158 52.4749 29.1476 52.9881 28.4958C53.4925 27.8551 53.7495 26.975 53.7495 25.9699C53.7495 24.9723 53.492 24.0945 52.9881 23.4543C52.4756 22.8031 51.7325 22.4319 50.857 22.4319C49.988 22.4319 49.2507 22.8144 48.7428 23.4655C48.2425 24.1067 47.982 24.9827 47.982 25.9699C47.982 26.9646 48.2421 27.8429 48.7428 28.4846C48.7487 28.4921 48.7546 28.4996 48.7605 28.507H48.5327H48.4897H47.9897V29.007V32.9914H47.1313V21.9426H47.9302V22.9485V23.4485H48.4302H48.4644H48.7526L48.8971 23.199C49.1427 22.7748 49.4988 22.4251 49.9274 22.1871C50.356 21.9491 50.8411 21.8318 51.3311 21.8476L51.3391 21.8479L51.3472 21.8479C52.3533 21.8479 53.1629 22.2402 53.7299 22.9255C54.3044 23.6198 54.6597 24.6532 54.6597 25.9699C54.6597 27.2915 54.3061 28.3251 53.7364 29.018C53.1744 29.7018 52.3737 30.091 51.3814 30.091Z" fill="white" stroke="white"/>
<path d="M61.3462 30.091H61.3332L61.3201 30.0917C60.8382 30.1169 60.359 30.0059 59.9373 29.7714C59.5155 29.5369 59.1684 29.1884 58.9355 28.7657L58.9071 28.7141C59.4011 29.2246 60.0615 29.5158 60.8218 29.5158C61.6962 29.5158 62.4397 29.1476 62.9529 28.4958C63.4573 27.8551 63.7144 26.9749 63.7144 25.9699V25.4699H63.6919C63.6193 24.6794 63.3708 23.9851 62.953 23.4543C62.4405 22.8031 61.6974 22.4318 60.8218 22.4318C59.9529 22.4318 59.2155 22.8144 58.7076 23.4655C58.2074 24.1067 57.9468 24.9827 57.9468 25.9699C57.9468 26.9646 58.2069 27.8429 58.7076 28.4846C58.7135 28.4921 58.7194 28.4996 58.7253 28.507H58.4976H58.4546H57.9546V29.007V32.9914H57.0962V21.9426H57.895V22.9484V23.4484H58.395H58.4292H58.7174L58.8619 23.199C59.1075 22.7748 59.4636 22.4251 59.8922 22.1871C60.3208 21.9491 60.8059 21.8318 61.2959 21.8476L61.304 21.8479H61.312C62.3182 21.8479 63.1277 22.2402 63.6947 22.9255C64.2692 23.6198 64.6245 24.6532 64.6245 25.9699C64.6245 27.2915 64.2709 28.325 63.7013 29.018C63.1393 29.7018 62.3385 30.091 61.3462 30.091Z" fill="white" stroke="white"/>
<path d="M70.375 27.5364C70.5282 28.2722 70.9171 28.8722 71.4926 29.3163C72.209 29.8692 73.2465 30.2033 74.5415 30.2033C75.9368 30.2033 77.015 29.858 77.7329 29.2926C78.4377 28.7374 78.8355 27.9403 78.8355 26.925C78.8355 26.1262 78.6086 25.5566 78.1419 25.1098C77.6533 24.6421 76.8537 24.2624 75.6139 23.9692L75.6098 23.9682L75.6098 23.9682L74.2416 23.6323L74.2409 23.6321C73.4216 23.4297 72.7723 23.181 72.3225 22.8244C71.84 22.4418 71.606 21.9493 71.606 21.3567C71.606 20.6334 71.949 20.0247 72.5085 19.612C73.0578 19.2069 73.8001 18.9983 74.6274 18.9983C75.4553 18.9983 76.1989 19.205 76.763 19.6268C77.2172 19.9664 77.5339 20.4306 77.68 20.9856H78.5822C78.4491 20.2893 78.086 19.7038 77.5422 19.2636C76.8628 18.7136 75.875 18.3713 74.6538 18.3713C73.4169 18.3713 72.4041 18.7147 71.7118 19.2661C71.0276 19.8111 70.6353 20.573 70.6353 21.4856C70.6353 22.2377 70.8602 22.8036 71.3038 23.2489C71.7625 23.7093 72.4971 24.0829 73.5913 24.3472L70.375 27.5364ZM70.375 27.5364L71.3027 27.5364C71.6901 28.8486 73.0858 29.5764 74.6792 29.5764C75.5434 29.5764 76.3244 29.354 76.9038 28.9403C77.4902 28.5216 77.8726 27.9001 77.8726 27.1575C77.8726 26.5345 77.6425 26.0075 77.1547 25.5945C76.6952 25.2054 76.033 24.9394 75.2029 24.7354L75.2006 24.7349L73.5916 24.3472L70.375 27.5364Z" fill="white" stroke="white"/>
<path d="M81.479 22.4143H80.6626V21.9426H81.479H81.979V21.4426V19.8H82.8462V21.4426V21.9426H83.3462H84.5679V22.4143H83.3462H82.8462V22.9143V27.9055C82.8462 28.3559 82.945 28.7924 83.2535 29.1119C83.5655 29.4351 83.9983 29.5422 84.4478 29.5422V29.5423L84.4565 29.5422C84.4907 29.5416 84.5249 29.5407 84.5591 29.5395V30.0281C84.3854 30.0447 84.2108 30.0514 84.0362 30.0482L84.0362 30.0481H84.0269C83.1529 30.0481 82.6788 29.88 82.4119 29.6237C82.1502 29.3724 81.979 28.9307 81.979 28.1037V22.9143V22.4143H81.479Z" fill="white" stroke="white"/>
<path d="M93.2412 26.47H93.2603V25.97C93.2603 24.9245 93.0217 24.0261 92.5198 23.3775C92.0051 22.7123 91.2532 22.3625 90.3589 22.3625C89.4634 22.3625 88.712 22.7155 88.1982 23.3813C87.6971 24.0306 87.4585 24.9286 87.4585 25.97C87.4585 27.0188 87.6967 27.9174 88.1989 28.5652C88.7139 29.2298 89.4659 29.5764 90.3589 29.5764C91.252 29.5764 92.0041 29.2298 92.5194 28.5653C92.94 28.023 93.1756 27.3049 93.2412 26.47ZM86.565 25.97C86.565 24.6427 86.9547 23.6144 87.5972 22.9227C88.2362 22.2348 89.1697 21.8313 90.3589 21.8313C91.553 21.8313 92.4865 22.2351 93.1243 22.9225C93.7658 23.6139 94.1539 24.6421 94.1539 25.97C94.1539 27.3027 93.7675 28.3305 93.1275 29.0204C92.4914 29.7062 91.5584 30.1086 90.3589 30.1086C89.16 30.1086 88.2272 29.7062 87.5913 29.0205C86.9514 28.3306 86.565 27.3027 86.565 25.97Z" fill="white" stroke="white"/>
<path d="M97.5445 25.153V29.9965H96.6861L96.6861 21.9428H97.4585V22.9837V23.4837H97.9585H98.0015H98.0123C97.8552 23.6916 97.733 23.9245 97.6512 24.1731C97.5474 24.4887 97.5111 24.8226 97.5445 25.153ZM100.181 21.848C100.226 21.8478 100.271 21.849 100.316 21.8514V22.5531C100.206 22.5438 100.095 22.5405 99.9836 22.5431C99.6474 22.532 99.3127 22.5924 99.0016 22.7205C98.8309 22.7908 98.6695 22.8806 98.5204 22.9877C98.6261 22.6661 98.8281 22.3835 99.1003 22.179C99.405 21.9501 99.7793 21.8331 100.16 21.8476L100.171 21.848L100.181 21.848Z" fill="white" stroke="white"/>
<path d="M108.725 28.3372C108.279 29.3701 107.088 30.1086 105.486 30.1086C104.285 30.1086 103.359 29.7097 102.73 29.0323C102.098 28.3505 101.717 27.3339 101.717 26.0129C101.717 24.6875 102.1 23.645 102.73 22.9405C103.355 22.2417 104.262 21.8313 105.408 21.8313C106.54 21.8313 107.419 22.2167 108.018 22.8721C108.622 23.5326 108.988 24.5183 108.988 25.7971V25.9338H103.093H102.593V26.4338V26.5251C102.561 26.9214 102.613 27.32 102.744 27.6955C102.877 28.0783 103.091 28.4284 103.37 28.7223C103.649 29.0163 103.988 29.2475 104.363 29.4006C104.728 29.5496 105.121 29.6213 105.515 29.6113C106.05 29.6545 106.586 29.5274 107.046 29.2476C107.415 29.0228 107.719 28.7089 107.932 28.3372L108.725 28.3372ZM102.646 24.635H102.602V25.1226C102.602 25.1272 102.602 25.1317 102.602 25.1363L103.102 25.1357V25.635H107.628H108.101L108.128 25.1628C108.148 24.7944 108.092 24.4258 107.964 24.08C107.835 23.7342 107.636 23.4187 107.38 23.1534C107.123 22.8881 106.815 22.6786 106.474 22.5382C106.135 22.3986 105.77 22.3302 105.404 22.3371C105.038 22.3358 104.675 22.4067 104.336 22.5456C103.994 22.6853 103.684 22.8913 103.423 23.1515C103.162 23.4118 102.955 23.7211 102.814 24.0618C102.738 24.2468 102.681 24.439 102.646 24.635Z" fill="white" stroke="white"/>
<path d="M37.8262 8.73089C38.2158 8.70293 38.6068 8.76179 38.9709 8.90323C39.335 9.04466 39.6632 9.26514 39.9318 9.54876C40.2004 9.83239 40.4026 10.1721 40.524 10.5434C40.6455 10.9146 40.6829 11.3082 40.6338 11.6957C40.6338 13.602 39.6035 14.6977 37.8262 14.6977H35.6709V8.73089H37.8262ZM36.5977 13.8539H37.7227C38.0011 13.8705 38.2797 13.8249 38.5382 13.7203C38.7968 13.6157 39.0287 13.4547 39.2172 13.2491C39.4057 13.0436 39.546 12.7986 39.6279 12.532C39.7097 12.2653 39.7311 11.9838 39.6904 11.7079C39.7282 11.4331 39.7046 11.1533 39.6215 10.8886C39.5384 10.624 39.3977 10.381 39.2097 10.177C39.0216 9.9731 38.7908 9.81329 38.5337 9.70905C38.2766 9.60481 37.9997 9.55873 37.7227 9.5741H36.5977V13.8539Z" fill="white"/>
<path d="M41.6807 12.4443C41.6524 12.1484 41.6862 11.8498 41.7801 11.5677C41.8739 11.2857 42.0257 11.0263 42.2256 10.8063C42.4255 10.5864 42.6693 10.4106 42.9411 10.2903C43.213 10.17 43.507 10.1079 43.8042 10.1079C44.1015 10.1079 44.3955 10.17 44.6673 10.2903C44.9392 10.4106 45.1829 10.5864 45.3828 10.8063C45.5828 11.0263 45.7345 11.2857 45.8284 11.5677C45.9222 11.8498 45.9561 12.1484 45.9278 12.4443C45.9566 12.7405 45.9232 13.0395 45.8296 13.322C45.736 13.6045 45.5843 13.8644 45.3843 14.0848C45.1843 14.3052 44.9404 14.4813 44.6683 14.6019C44.3962 14.7224 44.1018 14.7847 43.8042 14.7847C43.5066 14.7847 43.2123 14.7224 42.9401 14.6019C42.668 14.4813 42.4241 14.3052 42.2241 14.0848C42.0241 13.8644 41.8725 13.6045 41.7789 13.322C41.6853 13.0395 41.6518 12.7405 41.6807 12.4443ZM45.0137 12.4443C45.0137 11.4682 44.5752 10.8974 43.8057 10.8974C43.0332 10.8974 42.5987 11.4682 42.5987 12.4443C42.5987 13.4282 43.0333 13.9946 43.8057 13.9946C44.5752 13.9946 45.0137 13.4243 45.0137 12.4443H45.0137Z" fill="white"/>
<path d="M51.5733 14.6978H50.6514L49.7207 11.3813H49.6504L48.7237 14.6978H47.8106L46.5694 10.1948H47.4707L48.2774 13.6308H48.3438L49.2696 10.1948H50.1221L51.0479 13.6308H51.1182L51.9209 10.1948H52.8096L51.5733 14.6978Z" fill="white"/>
<path d="M53.8536 10.1949H54.709V10.9102H54.7754C54.8881 10.6533 55.0781 10.4379 55.319 10.2941C55.5598 10.1503 55.8396 10.0852 56.1192 10.1079C56.3383 10.0915 56.5583 10.1245 56.7629 10.2046C56.9675 10.2847 57.1514 10.4098 57.3011 10.5707C57.4508 10.7315 57.5624 10.924 57.6276 11.1338C57.6928 11.3436 57.7099 11.5654 57.6778 11.7827V14.6977H56.7891V12.0059C56.7891 11.2823 56.4746 10.9224 55.8174 10.9224C55.6687 10.9155 55.5202 10.9408 55.3821 10.9966C55.244 11.0525 55.1197 11.1375 55.0176 11.2459C54.9154 11.3543 54.838 11.4834 54.7904 11.6246C54.7429 11.7657 54.7265 11.9154 54.7422 12.0635V14.6978H53.8535L53.8536 10.1949Z" fill="white"/>
<path d="M59.0938 8.43701H59.9825V14.6978H59.0938V8.43701Z" fill="white"/>
<path d="M61.2178 12.4444C61.1895 12.1484 61.2234 11.8499 61.3172 11.5678C61.4111 11.2857 61.5629 11.0263 61.7629 10.8064C61.9628 10.5864 62.2065 10.4106 62.4784 10.2903C62.7503 10.17 63.0443 10.1079 63.3416 10.1079C63.6389 10.1079 63.9329 10.17 64.2047 10.2903C64.4766 10.4106 64.7203 10.5864 64.9203 10.8064C65.1203 11.0263 65.272 11.2857 65.3659 11.5678C65.4598 11.8499 65.4936 12.1484 65.4654 12.4444C65.4942 12.7406 65.4607 13.0396 65.3671 13.3221C65.2734 13.6046 65.1218 13.8645 64.9217 14.0849C64.7217 14.3053 64.4778 14.4814 64.2057 14.6019C63.9335 14.7225 63.6392 14.7847 63.3416 14.7847C63.044 14.7847 62.7496 14.7225 62.4775 14.6019C62.2053 14.4814 61.9614 14.3053 61.7614 14.0849C61.5614 13.8645 61.4097 13.6046 61.3161 13.3221C61.2225 13.0396 61.189 12.7406 61.2178 12.4444ZM64.5508 12.4444C64.5508 11.4683 64.1123 10.8975 63.3428 10.8975C62.5703 10.8975 62.1358 11.4683 62.1358 12.4444C62.1358 13.4283 62.5704 13.9947 63.3428 13.9947C64.1123 13.9947 64.5508 13.4244 64.5508 12.4444H64.5508Z" fill="white"/>
<path d="M66.4009 13.4243C66.4009 12.6138 67.0044 12.1465 68.0757 12.0801L69.2954 12.0098V11.6211C69.2954 11.1455 68.981 10.877 68.3736 10.877C67.8775 10.877 67.5337 11.0591 67.4351 11.3774H66.5747C66.6656 10.604 67.3931 10.1079 68.4146 10.1079C69.5435 10.1079 70.1802 10.6699 70.1802 11.6211V14.6978H69.3247V14.0649H69.2544C69.1117 14.2919 68.9113 14.477 68.6737 14.6012C68.4361 14.7254 68.1697 14.7843 67.9019 14.7719C67.7129 14.7916 67.5218 14.7714 67.341 14.7127C67.1603 14.654 66.9938 14.5581 66.8524 14.4311C66.711 14.3042 66.5977 14.149 66.52 13.9756C66.4422 13.8021 66.4017 13.6144 66.4009 13.4243ZM69.2954 13.0395V12.6631L68.1958 12.7334C67.5757 12.7749 67.2945 12.9858 67.2945 13.3828C67.2945 13.7881 67.646 14.0239 68.1295 14.0239C68.2711 14.0382 68.4142 14.0239 68.5502 13.9819C68.6862 13.9398 68.8123 13.8707 68.9211 13.7789C69.0299 13.6871 69.1191 13.5743 69.1834 13.4473C69.2477 13.3202 69.2858 13.1816 69.2954 13.0395Z" fill="white"/>
<path d="M71.3482 12.4444C71.3482 11.0215 72.0796 10.1201 73.2173 10.1201C73.4987 10.1072 73.778 10.1746 74.0226 10.3145C74.2671 10.4544 74.4667 10.661 74.5982 10.9101H74.6646V8.43701H75.5533V14.6978H74.7017V13.9863H74.6314C74.4898 14.2338 74.2832 14.4378 74.0339 14.5763C73.7847 14.7148 73.5023 14.7825 73.2173 14.772C72.0718 14.772 71.3482 13.8706 71.3482 12.4444ZM72.2662 12.4444C72.2662 13.3994 72.7164 13.9741 73.4693 13.9741C74.2183 13.9741 74.6812 13.3911 74.6812 12.4483C74.6812 11.5098 74.2134 10.9185 73.4693 10.9185C72.7212 10.9185 72.2661 11.4971 72.2661 12.4444H72.2662Z" fill="white"/>
<path d="M79.23 12.4443C79.2017 12.1484 79.2356 11.8498 79.3294 11.5677C79.4232 11.2857 79.575 11.0263 79.7749 10.8063C79.9749 10.5864 80.2186 10.4106 80.4904 10.2903C80.7623 10.17 81.0563 10.1079 81.3536 10.1079C81.6508 10.1079 81.9448 10.17 82.2167 10.2903C82.4885 10.4106 82.7322 10.5864 82.9322 10.8063C83.1321 11.0263 83.2839 11.2857 83.3777 11.5677C83.4715 11.8498 83.5054 12.1484 83.4771 12.4443C83.5059 12.7405 83.4725 13.0395 83.3789 13.322C83.2853 13.6045 83.1336 13.8644 82.9336 14.0848C82.7336 14.3052 82.4897 14.4813 82.2176 14.6019C81.9455 14.7224 81.6512 14.7847 81.3536 14.7847C81.0559 14.7847 80.7616 14.7224 80.4895 14.6019C80.2173 14.4813 79.9735 14.3052 79.7735 14.0848C79.5735 13.8644 79.4218 13.6045 79.3282 13.322C79.2346 13.0395 79.2012 12.7405 79.23 12.4443ZM82.563 12.4443C82.563 11.4682 82.1245 10.8974 81.355 10.8974C80.5826 10.8974 80.148 11.4682 80.148 12.4443C80.148 13.4282 80.5826 13.9946 81.355 13.9946C82.1245 13.9946 82.563 13.4243 82.563 12.4443Z" fill="white"/>
<path d="M84.6695 10.1949H85.5249V10.9102H85.5913C85.704 10.6533 85.894 10.4379 86.1349 10.2941C86.3757 10.1503 86.6555 10.0852 86.9351 10.1079C87.1542 10.0915 87.3742 10.1245 87.5788 10.2046C87.7834 10.2847 87.9673 10.4098 88.117 10.5707C88.2667 10.7315 88.3783 10.924 88.4435 11.1338C88.5087 11.3436 88.5258 11.5654 88.4937 11.7827V14.6977H87.605V12.0059C87.605 11.2823 87.2906 10.9224 86.6333 10.9224C86.4846 10.9155 86.3361 10.9408 86.198 10.9966C86.06 11.0525 85.9356 11.1375 85.8335 11.2459C85.7314 11.3543 85.6539 11.4834 85.6064 11.6246C85.5588 11.7657 85.5424 11.9154 85.5581 12.0635V14.6978H84.6695V10.1949Z" fill="white"/>
<path d="M93.5152 9.07373V10.2153H94.4908V10.9639H93.5152V13.2793C93.5152 13.751 93.7095 13.9575 94.1519 13.9575C94.2651 13.9572 94.3783 13.9503 94.4908 13.937V14.6772C94.3312 14.7058 94.1695 14.721 94.0074 14.7226C93.0191 14.7226 92.6255 14.375 92.6255 13.5068V10.9638H91.9107V10.2153H92.6255V9.07373H93.5152Z" fill="white"/>
<path d="M95.7046 8.43701H96.5855V10.9185H96.6558C96.7739 10.6591 96.9691 10.4425 97.2148 10.2982C97.4605 10.1539 97.7448 10.0888 98.0288 10.1118C98.2467 10.1 98.4646 10.1364 98.6669 10.2184C98.8692 10.3004 99.0509 10.4261 99.199 10.5864C99.3471 10.7468 99.458 10.9378 99.5238 11.146C99.5896 11.3541 99.6086 11.5742 99.5796 11.7905V14.6978H98.69V12.0098C98.69 11.2905 98.355 10.9263 97.7271 10.9263C97.5744 10.9137 97.4207 10.9347 97.277 10.9878C97.1332 11.0408 97.0027 11.1247 96.8948 11.2334C96.7868 11.3421 96.7038 11.4732 96.6518 11.6173C96.5997 11.7614 96.5798 11.9152 96.5933 12.0679V14.6977H95.7047L95.7046 8.43701Z" fill="white"/>
<path d="M104.761 13.482C104.641 13.8935 104.379 14.2495 104.022 14.4877C103.666 14.7258 103.236 14.831 102.81 14.7847C102.513 14.7926 102.219 14.7357 101.946 14.6182C101.674 14.5007 101.43 14.3253 101.232 14.1041C101.034 13.883 100.887 13.6214 100.8 13.3376C100.713 13.0538 100.689 12.7545 100.73 12.4605C100.691 12.1656 100.715 11.8657 100.801 11.581C100.888 11.2964 101.034 11.0336 101.231 10.8105C101.428 10.5874 101.671 10.4093 101.942 10.2881C102.214 10.1669 102.509 10.1054 102.806 10.108C104.059 10.108 104.815 10.964 104.815 12.378V12.6881H101.635V12.7379C101.621 12.9031 101.642 13.0695 101.696 13.2262C101.75 13.383 101.837 13.5267 101.95 13.6481C102.062 13.7696 102.2 13.8661 102.352 13.9315C102.504 13.9969 102.669 14.0297 102.835 14.0279C103.047 14.0534 103.262 14.0151 103.453 13.9179C103.644 13.8207 103.802 13.669 103.906 13.482L104.761 13.482ZM101.635 12.0308H103.91C103.921 11.8797 103.9 11.7279 103.849 11.5852C103.798 11.4425 103.718 11.312 103.614 11.2021C103.509 11.0923 103.383 11.0055 103.243 10.9473C103.103 10.8891 102.953 10.8609 102.801 10.8643C102.648 10.8624 102.495 10.8913 102.353 10.9492C102.21 11.0072 102.081 11.093 101.972 11.2017C101.864 11.3104 101.778 11.4398 101.72 11.5822C101.662 11.7246 101.633 11.8771 101.635 12.0308H101.635Z" fill="white"/>
</svg>
