<svg width="471" height="565" viewBox="0 0 471 565" fill="none" xmlns="http://www.w3.org/2000/svg">
<path opacity="0.64" d="M235.1 564.609C364.942 564.609 470.2 543.432 470.2 517.309C470.2 491.186 364.942 470.009 235.1 470.009C105.258 470.009 0 491.186 0 517.309C0 543.432 105.258 564.609 235.1 564.609Z" fill="#68CCE9"/>
<path d="M122.4 509.709C125.7 499.009 135.8 493.309 152.2 488.509C162.6 485.509 175.8 484.109 196.5 479.909C206.6 477.909 213.7 473.909 213.7 473.909V485.409C213.7 485.409 145.2 498.909 134.5 516.609C129.3 525.309 130.9 546.609 155.4 548.809C147.9 549.909 135.6 548.009 129 541.309C120.8 533.009 118.6 521.909 122.4 509.709Z" fill="#282323" stroke="black" stroke-width="4" stroke-miterlimit="10" stroke-linecap="round" stroke-linejoin="round"/>
<path d="M213.7 485.409C213.7 485.409 172.7 493.009 150.8 502.409C131.6 510.709 132.2 519.309 131.7 528.109C131.4 533.209 135 545.809 149.6 548.009C167 550.609 187.5 547.809 213.7 531.109C213.7 490.209 213.7 485.409 213.7 485.409Z" fill="#442C2A"/>
<path opacity="0.37" d="M131.7 528.109C132.1 521.009 131.8 514.009 141.8 507.209C141.4 509.709 141.3 512.109 141.2 514.609C140.9 519.709 153.2 513.109 167.8 515.209C183 517.509 192 534.909 213.7 523.209C213.7 525.709 213.7 528.309 213.7 531.009C187.5 547.709 167 550.409 149.6 547.909C135 545.809 131.4 533.109 131.7 528.109Z" fill="#442C2A"/>
<path d="M213.7 485.409C213.7 485.409 172.7 493.009 150.8 502.409C131.6 510.709 132.2 519.309 131.7 528.109C131.4 533.209 135 545.809 149.6 548.009C167 550.609 187.5 547.809 213.7 531.109C213.7 490.209 213.7 485.409 213.7 485.409Z" stroke="black" stroke-width="4" stroke-miterlimit="10" stroke-linecap="round" stroke-linejoin="round"/>
<path d="M175.7 508.909C172.4 510.709 173.2 528.209 181.2 530.609" stroke="black" stroke-width="4" stroke-miterlimit="10" stroke-linecap="round" stroke-linejoin="round"/>
<path d="M188.2 507.609C184.8 512.409 187.2 523.709 193.3 526.509" stroke="black" stroke-width="4" stroke-miterlimit="10" stroke-linecap="round" stroke-linejoin="round"/>
<path d="M199.7 503.609C196.3 508.409 198.7 519.709 204.8 522.509" stroke="black" stroke-width="4" stroke-miterlimit="10" stroke-linecap="round" stroke-linejoin="round"/>
<path d="M317.7 451.809C296.1 466.809 265.4 475.409 233.3 475.409C201.3 475.409 170.5 466.809 148.9 451.809C139 444.909 122.4 430.509 122.4 411.309C122.4 392.109 139 377.709 148.9 370.809C170.5 355.809 201.2 347.209 233.3 347.209C265.3 347.209 296.1 355.809 317.7 370.809C327.6 377.709 344.2 392.109 344.2 411.309C344.2 430.509 327.6 444.909 317.7 451.809Z" fill="#151E28"/>
<path d="M416.6 427.309C416.2 429.309 415.8 431.209 415.2 433.209C399.6 490.109 324.4 533.309 233.9 533.309C143.2 533.309 67.8002 489.909 52.5002 432.809C52.1002 431.209 51.7002 429.609 51.4002 428.009C51.0002 425.009 51.1001 422.009 51.7001 419.009C55.4001 402.209 75.8002 392.509 97.3002 397.309C111.4 400.409 122.4 409.109 127.3 419.409C127.8 421.609 128.6 423.809 129.5 425.909C134.7 437.909 145.1 446.909 152.1 451.909C173 466.909 202.9 475.509 233.9 475.509C265 475.509 294.8 466.909 315.7 451.909C322.8 446.809 333.3 437.709 338.4 425.709C339.2 423.809 339.9 421.709 340.4 419.709C345.2 409.309 356.3 400.609 370.5 397.409C392 392.609 412.4 402.409 416.1 419.109C416.8 421.709 416.9 424.509 416.6 427.309Z" fill="#2A3749"/>
<path opacity="0.67" d="M416.1 418.909C416 418.409 415.9 418.009 415.7 417.509C415.4 419.109 415 420.809 414.5 422.409C399.1 479.309 323.8 522.509 233.4 522.509C142.7 522.509 67.3002 479.109 52.0002 422.009C51.8002 421.409 51.7002 420.809 51.5002 420.109C51.1002 422.709 51.0001 425.309 51.4001 427.809C51.7001 429.409 52.1002 431.009 52.5002 432.609C67.8002 489.709 143.2 533.109 233.9 533.109C324.4 533.109 399.6 489.909 415.2 433.009C415.7 431.109 416.2 429.109 416.6 427.109C416.9 424.509 416.8 421.709 416.1 418.909Z" fill="#151E28"/>
<path d="M416.6 427.309C416.2 429.309 415.8 431.209 415.2 433.209C399.6 490.109 324.4 533.309 233.9 533.309C143.2 533.309 67.8002 489.909 52.5002 432.809C52.1002 431.209 51.7002 429.609 51.4002 428.009C51.0002 425.009 51.1001 422.009 51.7001 419.009C55.4001 402.209 75.8002 392.509 97.3002 397.309C111.4 400.409 122.4 409.109 127.3 419.409C127.8 421.609 128.6 423.809 129.5 425.909C134.7 437.909 145.1 446.909 152.1 451.909C173 466.909 202.9 475.509 233.9 475.509C265 475.509 294.8 466.909 315.7 451.909C322.8 446.809 333.3 437.709 338.4 425.709C339.2 423.809 339.9 421.709 340.4 419.709C345.2 409.309 356.3 400.609 370.5 397.409C392 392.609 412.4 402.409 416.1 419.109C416.8 421.709 416.9 424.509 416.6 427.309Z" stroke="black" stroke-width="4" stroke-miterlimit="10" stroke-linecap="round" stroke-linejoin="round"/>
<path d="M235.1 444.909C284.861 444.909 325.2 431.209 325.2 414.309C325.2 397.409 284.861 383.709 235.1 383.709C185.339 383.709 145 397.409 145 414.309C145 431.209 185.339 444.909 235.1 444.909Z" fill="#9B2121"/>
<path d="M235.1 444.909C284.861 444.909 325.2 431.209 325.2 414.309C325.2 397.409 284.861 383.709 235.1 383.709C185.339 383.709 145 397.409 145 414.309C145 431.209 185.339 444.909 235.1 444.909Z" stroke="black" stroke-width="4" stroke-miterlimit="10" stroke-linecap="round" stroke-linejoin="round"/>
<path d="M337.7 347.509H130.1C114.2 347.509 101.9 333.609 103.9 317.809L113.1 244.309C115.7 223.309 133.5 207.609 154.7 207.609H313.3C334.4 207.609 352.2 223.309 354.9 244.309L364.1 317.809C365.9 333.609 353.6 347.509 337.7 347.509Z" fill="#F1534D"/>
<path d="M337.7 347.509H130.1C114.2 347.509 101.9 333.609 103.9 317.809L113.1 244.309C115.7 223.309 133.5 207.609 154.7 207.609H313.3C334.4 207.609 352.2 223.309 354.9 244.309L364.1 317.809C365.9 333.609 353.6 347.509 337.7 347.509Z" stroke="black" stroke-width="4" stroke-miterlimit="10" stroke-linecap="round" stroke-linejoin="round"/>
<path d="M152.601 269.709L150.601 294.809" stroke="black" stroke-width="4" stroke-miterlimit="10" stroke-linecap="round" stroke-linejoin="round"/>
<path d="M316.7 269.709L318.7 294.809" stroke="black" stroke-width="4" stroke-miterlimit="10" stroke-linecap="round" stroke-linejoin="round"/>
<path d="M337.7 347.509H130.1C114.2 347.509 101.9 333.609 103.9 317.809L113.1 244.309C115.7 223.309 133.5 207.609 154.7 207.609H313.3C334.4 207.609 352.2 223.309 354.9 244.309L364.1 317.809C365.9 333.609 353.6 347.509 337.7 347.509Z" fill="#6F85FD"/>
<g opacity="0.24">
<path opacity="0.24" d="M113 252.109C115.6 231.109 133.4 215.409 154.6 215.409H313.2C334.3 215.409 352.1 231.109 354.8 252.109L363.9 325.009C364.2 322.709 364.3 320.309 364 317.809L354.8 244.309C352.2 223.309 334.4 207.609 313.2 207.609H154.6C133.5 207.609 115.7 223.309 113 244.309L103.8 317.809C103.5 320.209 103.5 322.609 103.9 325.009L113 252.109Z" fill="#9B2121"/>
<path opacity="0.24" d="M163.8 215.409C163.8 215.409 176.1 217.609 177.1 224.409C177.9 229.909 177.8 233.509 179.9 235.709C182 237.909 186.9 242.409 196.8 242.409C191.3 236.909 191.2 217.609 189.7 217.609C188.3 217.609 184.7 208.009 184.7 208.009L179.9 205.809C180 205.809 162.3 208.009 163.8 215.409Z" fill="#9B2121"/>
<path opacity="0.24" d="M295.2 215.409C295.2 215.409 282.9 217.609 281.9 224.409C281.1 229.909 281.2 233.509 279.1 235.709C277 237.809 272.1 242.409 262.2 242.409C267.7 236.909 267.8 217.609 269.3 217.609C270.7 217.609 274.3 208.009 274.3 208.009L279.1 205.809C279 205.809 296.7 208.009 295.2 215.409Z" fill="#9B2121"/>
</g>
<path d="M337.7 347.509H130.1C114.2 347.509 101.9 333.609 103.9 317.809L113.1 244.309C115.7 223.309 133.5 207.609 154.7 207.609H313.3C334.4 207.609 352.2 223.309 354.9 244.309L364.1 317.809C365.9 333.609 353.6 347.509 337.7 347.509Z" stroke="black" stroke-width="4" stroke-miterlimit="10" stroke-linecap="round" stroke-linejoin="round"/>
<path d="M152.6 269.709L150.6 294.809" stroke="black" stroke-width="4" stroke-miterlimit="10" stroke-linecap="round" stroke-linejoin="round"/>
<path d="M316.699 269.709L318.699 294.809" stroke="black" stroke-width="4" stroke-miterlimit="10" stroke-linecap="round" stroke-linejoin="round"/>
<path d="M207.2 165.809L174.3 164.109L158.9 165.809C158.9 165.809 148.6 173.509 148.6 175.609C148.6 177.709 149.6 194.809 149.6 194.809C149.6 194.809 173.9 198.109 176.5 200.609C179.1 203.109 194.5 217.509 194.5 217.509L209.4 211.709L217.2 190.909L207.2 165.809Z" fill="#205284"/>
<path d="M201.4 153.109H163.4C148.1 153.109 135.6 165.509 135.6 180.909C135.6 196.209 148 208.709 163.4 208.709H168.4C176.5 208.709 183 215.209 183 223.309V224.809C183 234.509 190.9 242.409 200.6 242.409V224.409C200.8 224.409 201 224.609 201 224.809V223.309C201 205.309 186.4 190.709 168.4 190.709H163.4C158 190.709 153.6 186.309 153.6 180.909C153.6 175.509 158 171.109 163.4 171.109H201.4V153.109Z" fill="#6F85FD"/>
<path d="M199.099 212.009C194.499 199.609 182.499 190.609 168.499 190.609H163.499C158.099 190.609 153.699 186.209 153.699 180.809C153.699 175.409 158.099 171.009 163.499 171.009H201.499V153.009H163.499C148.199 153.009 135.699 165.409 135.699 180.809C135.699 196.109 148.099 208.609 163.499 208.609H168.499C176.599 208.609 183.099 215.109 183.099 223.209V224.709C183.099 234.409 190.999 242.309 200.699 242.309" stroke="black" stroke-width="4" stroke-miterlimit="10" stroke-linecap="round" stroke-linejoin="round"/>
<path d="M250.7 165.809L283.6 164.109L299 165.809C299 165.809 309.3 173.509 309.3 175.609C309.3 177.709 308.3 194.809 308.3 194.809C308.3 194.809 284 198.109 281.4 200.609C278.8 203.209 263.4 217.509 263.4 217.509L248.5 211.709L240.7 190.909L250.7 165.809Z" fill="#205284"/>
<path d="M256.5 153.109H294.5C309.8 153.109 322.3 165.509 322.3 180.909C322.3 196.209 309.9 208.709 294.5 208.709H289.5C281.4 208.709 274.9 215.209 274.9 223.309V224.809C274.9 234.509 267 242.409 257.3 242.409V224.409C257.1 224.409 256.9 224.609 256.9 224.809V223.309C256.9 205.309 271.5 190.709 289.5 190.709H294.5C299.9 190.709 304.3 186.309 304.3 180.909C304.3 175.509 299.9 171.109 294.5 171.109H256.5V153.109Z" fill="#6F85FD"/>
<path d="M258.9 212.009C263.5 199.609 275.5 190.609 289.5 190.609H294.5C299.9 190.609 304.3 186.209 304.3 180.809C304.3 175.409 299.9 171.009 294.5 171.009H256.5V153.009H294.5C309.8 153.009 322.3 165.409 322.3 180.809C322.3 196.109 309.9 208.609 294.5 208.609H289.5C281.4 208.609 274.9 215.109 274.9 223.209V224.709C274.9 234.409 267 242.309 257.3 242.309" stroke="black" stroke-width="4" stroke-miterlimit="10" stroke-linecap="round" stroke-linejoin="round"/>
<path d="M230.8 228.209C252.339 228.209 269.8 210.748 269.8 189.209C269.8 167.67 252.339 150.209 230.8 150.209C209.261 150.209 191.8 167.67 191.8 189.209C191.8 210.748 209.261 228.209 230.8 228.209Z" fill="#6F85FD"/>
<path d="M193.5 177.709C204.3 184.609 217.1 188.709 230.8 188.709C244.5 188.709 257.3 184.709 268.1 177.709C263.2 161.709 248.4 150.109 230.8 150.109C213.3 150.209 198.4 161.809 193.5 177.709Z" fill="#6F85FD"/>
<path d="M230.8 228.209C252.339 228.209 269.8 210.748 269.8 189.209C269.8 167.67 252.339 150.209 230.8 150.209C209.261 150.209 191.8 167.67 191.8 189.209C191.8 210.748 209.261 228.209 230.8 228.209Z" stroke="black" stroke-width="4" stroke-miterlimit="10" stroke-linecap="round" stroke-linejoin="round"/>
<path d="M230.8 211.809C218.1 211.809 207.8 201.509 207.8 188.809V171.609C207.8 168.409 210.4 165.809 213.6 165.809H248.1C251.3 165.809 253.9 168.409 253.9 171.609V188.809C253.8 201.509 243.5 211.809 230.8 211.809Z" fill="#FFC897"/>
<path d="M248.1 165.809H213.6C210.4 165.809 207.8 168.609 207.8 172.009V186.109C215 188.809 222.7 190.309 230.8 190.309C238.9 190.309 246.6 188.809 253.8 186.109V172.009C253.8 168.609 251.2 165.809 248.1 165.809Z" fill="#E5A973"/>
<path d="M230.8 211.809C218.1 211.809 207.8 201.509 207.8 188.809V171.609C207.8 168.409 210.4 165.809 213.6 165.809H248.1C251.3 165.809 253.9 168.409 253.9 171.609V188.809C253.8 201.509 243.5 211.809 230.8 211.809Z" stroke="black" stroke-width="4" stroke-miterlimit="10" stroke-linecap="round" stroke-linejoin="round"/>
<path d="M255.7 470.909H234.3V539.209H255.7V470.909Z" fill="#607691"/>
<path d="M255.7 470.909H234.3V539.209H255.7V470.909Z" stroke="black" stroke-width="4" stroke-miterlimit="10" stroke-linecap="round" stroke-linejoin="round"/>
<path d="M129.4 425.709C128.5 423.609 127.8 421.509 127.2 419.209C128.3 421.409 129 423.509 129.4 425.709Z" stroke="black" stroke-width="4" stroke-miterlimit="10" stroke-linecap="round" stroke-linejoin="round"/>
<path d="M338.5 425.509C338.9 423.409 339.6 421.409 340.5 419.509C340 421.609 339.3 423.609 338.5 425.509Z" stroke="black" stroke-width="4" stroke-miterlimit="10" stroke-linecap="round" stroke-linejoin="round"/>
<path d="M338.2 420.709H129.7C122.3 420.709 116 415.209 115 407.809L102 306.009C100.9 297.209 107.8 289.309 116.7 289.309H351.2C360.1 289.309 367 297.109 365.9 306.009L352.9 407.809C351.9 415.109 345.6 420.709 338.2 420.709Z" fill="#B5B5B5"/>
<path opacity="0.21" d="M352.801 401.409C351.901 408.809 345.601 414.309 338.101 414.309H129.701C122.301 414.309 116.001 408.809 115.001 401.409L102.201 301.109C101.901 302.709 101.801 304.309 102.001 306.009L115.001 407.809C115.901 415.209 122.201 420.709 129.701 420.709H338.201C345.601 420.709 351.901 415.209 352.901 407.809L365.901 306.009C366.101 304.309 366.001 302.709 365.701 301.109L352.801 401.409Z" fill="#7E7E7E"/>
<path opacity="0.21" d="M102.1 306.909C103.3 300.109 109.3 294.709 116.6 294.709H351.1C358.5 294.709 364.4 300.009 365.6 306.909L365.7 305.909C366.8 297.109 359.9 289.209 351 289.209H116.7C107.8 289.209 100.9 297.009 102 305.909L102.1 306.909Z" fill="#7E7E7E"/>
<path d="M338.2 420.709H129.7C122.3 420.709 116 415.209 115 407.809L102 306.009C100.9 297.209 107.8 289.309 116.7 289.309H351.2C360.1 289.309 367 297.109 365.9 306.009L352.9 407.809C351.9 415.109 345.6 420.709 338.2 420.709Z" stroke="black" stroke-width="4" stroke-miterlimit="10" stroke-linecap="round" stroke-linejoin="round"/>
<path opacity="0.66" d="M243.801 348.809C239.301 348.809 235.701 345.209 235.701 340.709C235.701 340.409 235.701 340.109 235.801 339.809C235.001 339.709 234.201 339.609 233.401 339.609C226.101 339.609 220.101 345.609 220.101 352.909C220.101 360.209 226.101 366.209 233.401 366.209C240.701 366.209 246.701 360.209 246.701 352.909C246.701 351.409 246.401 349.909 246.001 348.509C245.301 348.609 244.601 348.809 243.801 348.809Z" fill="#B5B5B5"/>
<path d="M347 509.709C343.7 499.009 333.6 493.309 317.2 488.509C306.8 485.509 293.6 484.109 272.9 479.909C262.8 477.909 255.7 473.909 255.7 473.909V485.409C255.7 485.409 324.2 498.909 334.9 516.609C340.1 525.309 338.5 546.609 314 548.809C321.5 549.909 333.8 548.009 340.4 541.309C348.6 533.009 350.8 521.909 347 509.709Z" fill="#282323" stroke="black" stroke-width="4" stroke-miterlimit="10" stroke-linecap="round" stroke-linejoin="round"/>
<path d="M255.7 485.409C255.7 485.409 296.7 493.009 318.6 502.409C337.8 510.709 337.2 519.309 337.7 528.109C338 533.209 334.4 545.809 319.8 548.009C302.4 550.609 281.9 547.809 255.7 531.109C255.7 490.209 255.7 485.409 255.7 485.409Z" fill="#442C2A"/>
<path opacity="0.37" d="M337.7 528.109C337.3 521.009 337.6 514.009 327.6 507.209C328 509.709 328.1 512.109 328.2 514.609C328.5 519.709 324.9 532.309 310.3 534.509C295.1 536.809 277.4 534.909 255.7 523.209C255.7 525.709 255.7 528.309 255.7 531.009C281.9 547.709 302.4 550.409 319.8 547.909C334.5 545.809 338 533.109 337.7 528.109Z" fill="#442C2A"/>
<path d="M255.7 485.409C255.7 485.409 296.7 493.009 318.6 502.409C337.8 510.709 337.2 519.309 337.7 528.109C338 533.209 334.4 545.809 319.8 548.009C302.4 550.609 281.9 547.809 255.7 531.109C255.7 490.209 255.7 485.409 255.7 485.409Z" stroke="black" stroke-width="4" stroke-miterlimit="10" stroke-linecap="round" stroke-linejoin="round"/>
<path d="M293.7 508.909C297 510.709 296.2 528.209 288.2 530.609" stroke="black" stroke-width="4" stroke-miterlimit="10" stroke-linecap="round" stroke-linejoin="round"/>
<path d="M281.201 507.609C284.601 512.409 282.201 523.709 276.101 526.509" stroke="black" stroke-width="4" stroke-miterlimit="10" stroke-linecap="round" stroke-linejoin="round"/>
<path d="M269.701 503.609C273.101 508.409 270.701 519.709 264.601 522.509" stroke="black" stroke-width="4" stroke-miterlimit="10" stroke-linecap="round" stroke-linejoin="round"/>
<path d="M195.7 232.209V285.409" stroke="black" stroke-width="6" stroke-miterlimit="10" stroke-linecap="round" stroke-linejoin="round"/>
<path d="M263.2 232.209V269.709" stroke="black" stroke-width="6" stroke-miterlimit="10" stroke-linecap="round" stroke-linejoin="round"/>
<path d="M263.2 281.009C267.784 281.009 271.5 277.293 271.5 272.709C271.5 268.125 267.784 264.409 263.2 264.409C258.616 264.409 254.9 268.125 254.9 272.709C254.9 277.293 258.616 281.009 263.2 281.009Z" fill="black"/>
<path d="M263.2 275.109C265.078 275.109 266.6 273.587 266.6 271.709C266.6 269.831 265.078 268.309 263.2 268.309C261.322 268.309 259.8 269.831 259.8 271.709C259.8 273.587 261.322 275.109 263.2 275.109Z" fill="#7E7E7E"/>
<path d="M230.799 182.709C195.999 182.709 167.699 154.509 167.699 119.609V46.4088H293.899V119.609C293.899 154.409 265.699 182.709 230.799 182.709Z" fill="#FFC897"/>
<path d="M230.799 174.009C195.999 174.009 167.699 145.809 167.699 110.909V119.609C167.699 154.409 195.899 182.709 230.799 182.709C265.599 182.709 293.899 154.509 293.899 119.609V110.909C293.899 145.709 265.699 174.009 230.799 174.009Z" fill="#E5A973"/>
<path d="M230.799 182.709C195.999 182.709 167.699 154.509 167.699 119.609V46.4088H293.899V119.609C293.899 154.409 265.699 182.709 230.799 182.709Z" stroke="black" stroke-width="4" stroke-miterlimit="10" stroke-linecap="round" stroke-linejoin="round"/>
<path d="M294.4 53.7088C294.2 50.3088 294 46.8088 293.9 43.4088C251.9 45.4088 209.7 45.1088 167.8 41.4088C167.5 45.3088 167.3 49.2088 167 53.1088C168.9 54.8088 170.9 56.6087 172.8 58.3087C174.4 59.1087 176.5 60.2088 178.4 61.2088C186.8 65.6088 198.5 71.2088 209.7 73.4088C213.8 74.2088 218.1 74.6088 222.5 74.5088C241.4 74.3088 257.3 66.8088 264 63.7088C265 63.2088 265.8 62.8088 266.3 62.7088C266.7 62.5088 267.1 62.4088 267.7 62.4088C268.9 62.4088 270.3 62.7088 272 63.0088C274.2 63.5088 276.8 64.0087 279.7 63.8087C283 63.6087 286 62.6088 288.9 60.7088C290.6 58.3088 292.5 56.0088 294.4 53.7088Z" fill="#E5A973"/>
<path d="M264 15.7087C264 15.7087 213.5 -17.5912 171.7 19.6088C163.9 26.5088 160.8 36.4088 160.8 45.5088V93.7088H167.8V58.7088C167.8 56.1088 169.6 54.1088 171.8 54.1088C175.4 54.1088 194.9 64.5087 211.4 67.4087C236.3 71.7087 259 60.2088 263.9 58.5088C272.3 55.5088 279.1 65.9088 289.7 54.2088H290.1C292.3 54.2088 294.1 56.3087 294.1 58.8087V93.8087H301.1V45.8088C300.9 34.0088 287.3 4.40875 264 15.7087Z" fill="#231A17"/>
<g opacity="0.34">
<path opacity="0.34" d="M167.699 87.1088H160.699V93.7088H167.699V87.1088Z" fill="#231A17"/>
<path opacity="0.34" d="M300.899 87.1088H293.899V93.7088H300.899V87.1088Z" fill="#231A17"/>
</g>
<path d="M264 15.7087C264 15.7087 213.5 -17.5912 171.7 19.6088C163.9 26.5088 160.8 36.4088 160.8 45.5088V93.7088H167.8V58.7088C167.8 56.1088 169.6 54.1088 171.8 54.1088C175.4 54.1088 194.9 64.5087 211.4 67.4087C236.3 71.7087 259 60.2088 263.9 58.5088C272.3 55.5088 279.1 65.9088 289.7 54.2088H290.1C292.3 54.2088 294.1 56.3087 294.1 58.8087V93.8087H301.1V45.8088C300.9 34.0088 287.3 4.40875 264 15.7087Z" stroke="black" stroke-width="4" stroke-miterlimit="10" stroke-linecap="round" stroke-linejoin="round"/>
<path d="M221.3 48.2088C221.3 48.2088 167.1 51.7088 155.6 22.9088" stroke="black" stroke-width="4" stroke-miterlimit="10" stroke-linecap="round" stroke-linejoin="round"/>
<path d="M228.999 41.3088C228.999 41.3088 176.799 38.0088 163.199 9.20876" stroke="black" stroke-width="4" stroke-miterlimit="10" stroke-linecap="round" stroke-linejoin="round"/>
<path d="M293.899 85.9088V118.709C300.899 118.709 306.499 111.409 306.499 102.309C306.499 93.2087 300.899 85.9088 293.899 85.9088Z" fill="#FFC897"/>
<path d="M293.899 87.7088V116.809C297.999 114.109 300.799 108.609 300.799 102.209C300.799 95.9088 297.999 90.4088 293.899 87.7088Z" fill="#E5A973"/>
<path d="M293.899 85.9088V118.709C300.899 118.709 306.499 111.409 306.499 102.309C306.499 93.2087 300.899 85.9088 293.899 85.9088Z" stroke="black" stroke-width="4" stroke-miterlimit="10" stroke-linecap="round" stroke-linejoin="round"/>
<path d="M167.8 85.9088V118.709C160.8 118.709 155.2 111.409 155.2 102.309C155.1 93.2087 160.8 85.9088 167.8 85.9088Z" fill="#FFC897"/>
<path d="M167.799 88.3087C164.199 91.2087 161.699 96.4087 161.699 102.309C161.699 108.209 164.099 113.409 167.799 116.309V88.3087Z" fill="#E5A973"/>
<path d="M167.8 85.9088V118.709C160.8 118.709 155.2 111.409 155.2 102.309C155.1 93.2087 160.8 85.9088 167.8 85.9088Z" stroke="black" stroke-width="4" stroke-miterlimit="10" stroke-linecap="round" stroke-linejoin="round"/>
<path d="M228.2 112.609L224 126.309C224 127.809 228.9 126.609 233.9 127.809" stroke="black" stroke-width="4" stroke-miterlimit="10" stroke-linecap="round" stroke-linejoin="round"/>
<path d="M251.799 138.209C253.299 148.609 239.899 157.809 229.399 155.909" stroke="black" stroke-width="3" stroke-miterlimit="10" stroke-linecap="round" stroke-linejoin="round"/>
<path d="M208.099 101.009C210.419 101.009 212.299 98.994 212.299 96.5088C212.299 94.0235 210.419 92.0088 208.099 92.0088C205.78 92.0088 203.899 94.0235 203.899 96.5088C203.899 98.994 205.78 101.009 208.099 101.009Z" stroke="black" stroke-width="2" stroke-miterlimit="10" stroke-linecap="round" stroke-linejoin="round"/>
<path d="M208.099 101.009C210.419 101.009 212.299 98.994 212.299 96.5088C212.299 94.0235 210.419 92.0088 208.099 92.0088C205.78 92.0088 203.899 94.0235 203.899 96.5088C203.899 98.994 205.78 101.009 208.099 101.009Z" fill="black"/>
<path d="M193.6 87.0088C195.7 84.5088 200.6 82.8087 206.4 82.8087C211 82.8087 215 83.9088 217.5 85.6088" stroke="black" stroke-width="3" stroke-miterlimit="10" stroke-linecap="round" stroke-linejoin="round"/>
<path d="M254.099 101.009C256.419 101.009 258.299 98.994 258.299 96.5088C258.299 94.0235 256.419 92.0088 254.099 92.0088C251.78 92.0088 249.899 94.0235 249.899 96.5088C249.899 98.994 251.78 101.009 254.099 101.009Z" stroke="black" stroke-width="2" stroke-miterlimit="10" stroke-linecap="round" stroke-linejoin="round"/>
<path d="M254.099 101.009C256.419 101.009 258.299 98.994 258.299 96.5088C258.299 94.0235 256.419 92.0088 254.099 92.0088C251.78 92.0088 249.899 94.0235 249.899 96.5088C249.899 98.994 251.78 101.009 254.099 101.009Z" fill="black"/>
<path d="M268.599 87.0088C266.499 84.5088 261.599 82.8087 255.799 82.8087C251.199 82.8087 247.199 83.9088 244.699 85.6088" stroke="black" stroke-width="3" stroke-miterlimit="10" stroke-linecap="round" stroke-linejoin="round"/>
</svg>
