<svg width="618" height="352" viewBox="0 0 618 352" fill="none" xmlns="http://www.w3.org/2000/svg">
<rect x="260" width="358" height="201" rx="3" fill="#C6D0EB"/>
<ellipse cx="440.5" cy="100" rx="61.5" ry="53" fill="url(#paint0_linear)"/>
<path d="M467.683 101.999L428.191 116.663L430.359 83.1791L467.683 101.999Z" fill="white"/>
<path d="M126.185 38.0412C134.934 38.4097 147.451 43.9026 147.451 53.4777C147.451 63.0528 134.849 66.8125 123.527 68.3741C131.207 75.6255 134.357 77.0281 133.57 80.1472C132.782 83.2663 125.694 91.8449 125.112 101.671C124.531 111.497 90.849 165.536 84.453 167.097C78.0571 168.659 90.6693 178.653 46.5531 179.775C34.7919 179.775 13.4527 165.958 13.4527 147.955C12.9241 108.713 64.4194 101.265 93.0532 57.4844C106.194 37.3881 122.126 37.8654 126.185 38.0412Z" fill="black"/>
<path d="M0 235H379V352H0V235Z" fill="#F1F6FD"/>
<path d="M44.5972 253.407H346.254" stroke="white" stroke-width="12.98" stroke-linecap="round" stroke-linejoin="round"/>
<path d="M233.167 257.531L243.86 252.641L251.435 263.04L240.742 267.926L233.167 257.531Z" fill="#E49D75"/>
<path d="M69.1714 287.7H306.583" stroke="white" stroke-width="12.98" stroke-linecap="round" stroke-linejoin="round"/>
<path d="M153.519 277.179L164.656 281.42L158.149 292.226L147.006 288.01L153.519 277.179Z" fill="#E49D75"/>
<path d="M215.459 185.481C226.295 185.481 242.232 236.915 249.083 251.996C247.65 255.152 239.521 260.068 235.059 260.068C226.454 248.646 207.176 224.162 203.751 220.377C201.007 217.363 204.623 185.481 215.459 185.481Z" fill="#323C5C"/>
<path opacity="0.27" d="M211.373 83.9865C213.223 83.0696 212.351 83.685 213.81 81.9936L211.373 83.9865Z" fill="black"/>
<path d="M91.1872 176.032C81.7942 176.032 74.0556 174.428 74.0556 191.941C74.0556 209.454 98.1911 224.041 126.835 224.041C155.48 224.041 168.155 223.438 170.767 222.936C171.538 228.726 154.655 268.404 152.842 278.619C154.137 281.349 162.515 284.749 166.057 284.749C169.598 284.749 216.717 224.129 215.491 186.67C215.655 180.809 188.432 179.188 171.232 179.188C154.031 179.188 117.421 180.759 112.791 180.759" fill="#323C5C"/>
<path d="M77.3329 177.752C76.1383 173.855 69.7001 90.0906 108.324 91.5853C146.948 93.0799 146.552 167.725 142.154 179.507C124.526 185.418 78.591 181.868 77.3329 177.752Z" fill="#FFD98E"/>
<path d="M121.354 84.941C120.746 86.084 117.469 92.1715 116.861 94.6584C116.253 97.1453 99.6501 94.0011 100.58 92.7576C106.078 85.4057 106.976 77.6854 107.87 73.821C108.689 70.2874 125.377 77.3714 121.354 84.941Z" fill="#D18C65"/>
<path d="M116.586 134.152L92.7572 136.161C91.1344 137.744 91.8374 141.487 91.811 143.413C91.7053 150.53 92.107 158.485 97.5409 164.481C99.6553 166.813 103.118 169.086 106.527 169.048C111.866 170.723 120.773 172.653 120.773 172.653L134.289 175.014C134.289 175.014 157.092 178.217 168.351 178.008C172.099 177.933 175.91 177.589 179.652 177.673C181.825 177.719 185.271 178.255 187.301 177.673C187.893 177.501 187.75 176.467 187.608 176.061C187.121 174.642 185.409 173.645 183.833 173.026C180.176 171.585 178.104 172.498 174.351 172.548C171.279 172.59 167.616 171.351 162.288 169.697C156.003 167.746 148.835 165.364 142.429 163.656C135.129 161.709 127.681 159.607 120.556 157.296C119.15 156.84 117.654 156.509 116.179 156.145C116.853 153.102 117.235 150.023 117.321 146.934C117.485 143.585 117.553 140.068 116.935 136.769C116.776 135.919 117.035 134.939 116.586 134.152Z" fill="#E49D75"/>
<path d="M86.414 136.681C82.3597 128.148 85.8854 101.479 99.0474 99.7327C117.358 97.5807 122.834 131.275 121.021 135.215C117.781 136.756 99.6288 141.851 86.414 136.681Z" fill="#FFE4AD"/>
<path d="M140.938 56.174C131.098 63.6076 118.137 67.8989 104.545 68.2234C103.912 68.8561 103.565 69.6391 103.562 70.4465C103.567 71.3477 103.98 72.2174 104.726 72.8979C105.472 73.5785 106.501 74.0248 107.626 74.156C108.805 79.8625 112.616 84.3339 118.23 85.6862C127.216 87.8549 137.476 81.1771 141.113 70.7689C142.952 65.5104 142.746 60.3146 140.938 56.174Z" fill="#E49D75"/>
<path d="M154.941 178.565C164.455 178.565 198.814 178.347 205.12 178.347L154.941 178.565Z" fill="#FFC88E"/>
<path d="M149.063 178.916C159.106 178.916 193.771 178.267 199.522 178.267C203.983 172.825 224.704 144.154 226.073 141.985" stroke="#9D9D9D" stroke-width="5.79" stroke-linecap="round" stroke-linejoin="round"/>
<path d="M148.635 285.368L141.382 296.346L178.278 311.636L180.334 308.525L162.066 290.941L148.635 285.368Z" fill="black"/>
<path d="M238.495 265.134L246.556 275.751L282.241 258.757L279.958 255.747L251.488 258.946L238.495 265.134Z" fill="black"/>
<path d="M41.468 272.98L17.8029 254.24L41.468 235.496" stroke="#DFDFDF" stroke-width="12.98" stroke-linecap="round" stroke-linejoin="round"/>
<path d="M335.359 339.934L359.014 321.194L335.354 302.454" stroke="#DFDFDF" stroke-width="12.98" stroke-linecap="round" stroke-linejoin="round"/>
<path d="M44.5972 320.964H316.552" stroke="white" stroke-width="12.98" stroke-linecap="round" stroke-linejoin="round"/>
<defs>
<linearGradient id="paint0_linear" x1="440.5" y1="47" x2="440.5" y2="153" gradientUnits="userSpaceOnUse">
<stop stop-color="#DD212C"/>
<stop offset="1" stop-color="#0F18E3" stop-opacity="0"/>
</linearGradient>
</defs>
</svg>
