<svg width="48" height="80" viewBox="0 0 48 80" fill="none" xmlns="http://www.w3.org/2000/svg">
<path d="M29.5859 33.4195C28.5626 33.1374 27.6583 32.8306 26.9841 32.5841C26.579 32.4361 26.246 32.3058 26.0071 32.2094C25.8875 32.1612 25.7907 32.1212 25.7196 32.0913C25.6841 32.0764 25.6549 32.064 25.6324 32.0544L25.6036 32.0421L25.5931 32.0376L25.5888 32.0357L25.5869 32.0349C25.586 32.0345 25.5851 32.0341 27.5754 27.4473L25.5851 32.0341L21.0436 30.0635C19.4204 33.4354 17.9043 36.9784 16.4995 40.5849C14.8487 44.823 13.3743 49.0885 12.0758 53.1798C12.2684 53.19 12.4712 53.2041 12.6843 53.2226L29.5859 33.4195ZM29.5859 33.4195C28.0951 34.9427 25.8074 36.5795 22.2736 37.8541M29.5859 33.4195L22.2736 37.8541M22.2736 37.8541C21.7763 38.0326 19.6924 38.8477 18.1806 40.0378C17.7684 40.3623 17.1192 40.927 16.5842 41.7472C16.0435 42.5761 15.2817 44.223 15.8229 46.2637C16.3504 48.2525 17.7775 49.3172 18.6338 49.7983C19.3306 50.1897 20.0551 50.4329 20.6971 50.595C18.7033 52.3096 16.1115 53.5185 12.687 53.2228L22.2736 37.8541ZM26.9007 22.493L24.9016 22.7653C25.7976 21.2311 26.7199 19.7608 27.6679 18.3679L32.8292 19.4211L33.8289 14.5221C32.8292 19.4211 32.8306 19.4214 32.8321 19.4217L32.8351 19.4223L32.8415 19.4236L32.8556 19.4264L32.8893 19.433C32.9141 19.4379 32.9438 19.4435 32.978 19.4498C33.0465 19.4624 33.1337 19.4777 33.2381 19.4947C33.292 19.5034 33.3506 19.5126 33.4137 19.5221C31.8776 20.9441 29.79 22.0996 26.9007 22.493ZM23.1069 40.8885C23.1072 40.8884 23.1141 40.8903 23.1271 40.8945C23.1132 40.8907 23.1067 40.8886 23.1069 40.8885Z" fill="#5759A9" stroke="white" stroke-width="10"/>
</svg>
