<svg width="135" height="40" viewBox="0 0 135 40" fill="none" xmlns="http://www.w3.org/2000/svg">
<path d="M130 0H5C2.23858 0 0 2.23858 0 5V35C0 37.7614 2.23858 40 5 40H130C132.761 40 135 37.7614 135 35V5C135 2.23858 132.761 0 130 0Z" fill="black"/>
<path d="M47.46 9.68995H44.37V10.61H46.54C46.5046 11.0025 46.3392 11.372 46.07 11.66C45.8605 11.8693 45.6106 12.0339 45.3356 12.1439C45.0606 12.2539 44.7661 12.307 44.47 12.3C44.1708 12.3015 43.8743 12.2425 43.5985 12.1266C43.3226 12.0107 43.073 11.8402 42.8647 11.6253C42.6564 11.4105 42.4937 11.1558 42.3864 10.8764C42.279 10.5971 42.2292 10.299 42.24 9.99995C42.2292 9.70091 42.279 9.40278 42.3864 9.12347C42.4937 8.84415 42.6564 8.58942 42.8647 8.37459C43.073 8.15975 43.3226 7.98925 43.5985 7.87331C43.8743 7.75738 44.1708 7.69841 44.47 7.69995C44.7597 7.69113 45.0477 7.74768 45.3126 7.8654C45.5775 7.98313 45.8124 8.15899 46 8.37995L46.07 8.45995L46.73 7.78995L46.68 7.71995C46.4051 7.41506 46.0626 7.17875 45.68 7.02995C45.28 6.85388 44.847 6.76524 44.41 6.76995C43.9902 6.77387 43.5754 6.8606 43.1892 7.02517C42.803 7.18974 42.4531 7.42892 42.1595 7.72899C41.8659 8.02906 41.6345 8.38412 41.4784 8.77382C41.3223 9.16352 41.2447 9.5802 41.25 9.99995C41.2447 10.4248 41.3242 10.8464 41.484 11.24C41.6438 11.6336 41.8807 11.9914 42.1806 12.2923C42.4805 12.5931 42.8376 12.8311 43.2307 12.9921C43.6238 13.1531 44.0452 13.234 44.47 13.23C44.8911 13.2462 45.3108 13.1736 45.7019 13.0168C46.0931 12.86 46.4468 12.6225 46.74 12.32C47.0041 12.0441 47.2094 11.7175 47.3434 11.36C47.4775 11.0025 47.5376 10.6214 47.52 10.24C47.5295 10.0834 47.5295 9.92648 47.52 9.76995L47.46 9.68995Z" fill="white"/>
<path d="M48.42 13.0999H52.13V12.1599H49.4V10.4599H51.86V9.5399H49.4V7.8399H52.13V6.8999H48.42V13.0999Z" fill="white"/>
<path d="M52.73 7.8399H54.41V13.0999H55.38V7.8399H57.05V6.8999H52.73V7.8399Z" fill="white"/>
<path d="M60.81 6.8999H59.84V13.0999H60.81V6.8999Z" fill="white"/>
<path d="M61.58 7.8399H63.26V13.0999H64.23V7.8399H65.9V6.8999H61.58V7.8399Z" fill="white"/>
<path d="M71.41 6.77009C70.9867 6.75768 70.5656 6.83503 70.1744 6.99705C69.7831 7.15906 69.4306 7.40207 69.14 7.71009C68.8422 8.01104 68.6081 8.36895 68.4518 8.76241C68.2954 9.15587 68.22 9.57682 68.23 10.0001C68.22 10.4234 68.2954 10.8443 68.4518 11.2378C68.6081 11.6312 68.8422 11.9891 69.14 12.2901C69.4381 12.5882 69.792 12.8247 70.1815 12.9861C70.571 13.1474 70.9884 13.2305 71.41 13.2305C71.8316 13.2305 72.249 13.1474 72.6385 12.9861C73.028 12.8247 73.3819 12.5882 73.68 12.2901C73.9778 11.9891 74.2119 11.6312 74.3682 11.2378C74.5246 10.8443 74.6 10.4234 74.59 10.0001C74.5994 9.57689 74.5237 9.15611 74.3674 8.76273C74.2111 8.36935 73.9773 8.01138 73.68 7.71009C73.3894 7.40207 73.0369 7.15906 72.6456 6.99705C72.2544 6.83503 71.8333 6.75768 71.41 6.77009ZM73.61 10.0001C73.6232 10.3019 73.5761 10.6032 73.4713 10.8866C73.3666 11.1699 73.2063 11.4295 73 11.6501C72.7956 11.8557 72.5525 12.0188 72.2848 12.1302C72.017 12.2415 71.73 12.2988 71.44 12.2988C71.1501 12.2988 70.863 12.2415 70.5952 12.1302C70.3275 12.0188 70.0844 11.8557 69.88 11.6501C69.6629 11.4344 69.4916 11.1771 69.3764 10.8935C69.2613 10.61 69.2047 10.3061 69.21 10.0001C69.2008 9.69622 69.2526 9.39358 69.3626 9.11015C69.4725 8.82671 69.6383 8.56824 69.85 8.35009C70.0544 8.14449 70.2975 7.98133 70.5652 7.86999C70.833 7.75866 71.1201 7.70134 71.41 7.70134C71.7 7.70134 71.987 7.75866 72.2548 7.86999C72.5225 7.98133 72.7656 8.14449 72.97 8.35009C73.1817 8.56824 73.3475 8.82671 73.4574 9.11015C73.5674 9.39358 73.6192 9.69622 73.61 10.0001Z" fill="white"/>
<path d="M79.33 6.8999V10.5099L79.35 11.3599L76.57 6.8999H75.47V13.0999H76.45V9.2599L76.42 8.4199L79.31 13.0499L79.34 13.0999H80.3V6.8999H79.33Z" fill="white"/>
<path d="M68.14 21.7499C67.2975 21.7519 66.4744 22.0037 65.775 22.4734C65.0755 22.9432 64.5311 23.6098 64.2105 24.3889C63.8899 25.1681 63.8075 26.0248 63.9738 26.8508C64.1402 27.6768 64.5477 28.4349 65.1448 29.0292C65.742 29.6236 66.502 30.0276 67.3287 30.19C68.1555 30.3524 69.0118 30.2661 69.7895 29.9418C70.5671 29.6175 71.2312 29.07 71.6976 28.3683C72.1641 27.6667 72.412 26.8425 72.41 25.9999C72.4182 25.4379 72.3131 24.8799 72.1012 24.3593C71.8892 23.8386 71.5747 23.366 71.1763 22.9694C70.7778 22.5729 70.3037 22.2606 69.7821 22.051C69.2605 21.8415 68.702 21.7391 68.14 21.7499ZM68.14 28.5799C67.6236 28.616 67.1082 28.496 66.661 28.2353C66.2137 27.9747 65.8552 27.5855 65.632 27.1184C65.4089 26.6512 65.3314 26.1278 65.4097 25.6161C65.488 25.1043 65.7184 24.628 66.071 24.249C66.4236 23.8699 66.882 23.6057 67.3868 23.4907C67.8915 23.3757 68.4192 23.4152 68.9012 23.604C69.3832 23.7929 69.7973 24.1223 70.0895 24.5496C70.3818 24.9769 70.5387 25.4822 70.54 25.9999C70.5561 26.3279 70.5064 26.6559 70.3937 26.9643C70.2811 27.2728 70.1078 27.5556 69.8841 27.7961C69.6605 28.0366 69.3909 28.2298 69.0914 28.3644C68.7918 28.499 68.4683 28.5723 68.14 28.5799ZM58.82 21.7499C57.9775 21.7519 57.1544 22.0037 56.455 22.4734C55.7555 22.9432 55.2111 23.6098 54.8905 24.3889C54.5699 25.1681 54.4875 26.0248 54.6538 26.8508C54.8201 27.6768 55.2277 28.4349 55.8248 29.0292C56.422 29.6236 57.182 30.0276 58.0087 30.19C58.8355 30.3524 59.6918 30.2661 60.4695 29.9418C61.2471 29.6175 61.9112 29.07 62.3776 28.3683C62.8441 27.6667 63.092 26.8425 63.09 25.9999C63.0982 25.4379 62.9931 24.8799 62.7812 24.3593C62.5692 23.8386 62.2547 23.366 61.8563 22.9694C61.4578 22.5729 60.9837 22.2606 60.4621 22.051C59.9405 21.8415 59.382 21.7391 58.82 21.7499ZM58.82 28.5799C58.3036 28.616 57.7882 28.496 57.341 28.2353C56.8937 27.9747 56.5352 27.5855 56.312 27.1184C56.0889 26.6512 56.0114 26.1278 56.0897 25.6161C56.168 25.1043 56.3984 24.628 56.751 24.249C57.1036 23.8699 57.562 23.6057 58.0668 23.4907C58.5715 23.3757 59.0992 23.4152 59.5812 23.604C60.0632 23.7929 60.4773 24.1223 60.7695 24.5496C61.0618 24.9769 61.2187 25.4822 61.22 25.9999C61.2361 26.3279 61.1864 26.6559 61.0737 26.9643C60.9611 27.2728 60.7878 27.5556 60.5641 27.7961C60.3405 28.0366 60.0709 28.2298 59.7714 28.3644C59.4718 28.499 59.1483 28.5723 58.82 28.5799ZM47.74 23.0599V24.8599H52.06C51.9923 25.7077 51.6399 26.5077 51.06 27.1299C50.6267 27.5714 50.1055 27.9171 49.5301 28.1444C48.9548 28.3718 48.3381 28.4759 47.72 28.4499C46.447 28.4499 45.2261 27.9442 44.3259 27.044C43.4257 26.1439 42.92 24.923 42.92 23.6499C42.92 22.3769 43.4257 21.156 44.3259 20.2558C45.2261 19.3556 46.447 18.8499 47.72 18.8499C48.9405 18.8318 50.1189 19.2952 51 20.1399L52.27 18.8699C51.674 18.2804 50.9663 17.8158 50.1885 17.5033C49.4106 17.1908 48.5782 17.0366 47.74 17.0499C46.851 17.0153 45.9642 17.1605 45.1326 17.4769C44.3011 17.7932 43.542 18.2742 42.9008 18.8909C42.2596 19.5077 41.7494 20.2475 41.401 21.0661C41.0526 21.8847 40.873 22.7652 40.873 23.6549C40.873 24.5446 41.0526 25.4251 41.401 26.2437C41.7494 27.0623 42.2596 27.8022 42.9008 28.4189C43.542 29.0357 44.3011 29.5166 45.1326 29.833C45.9642 30.1493 46.851 30.2945 47.74 30.2599C48.5954 30.2941 49.4484 30.1469 50.2429 29.8281C51.0374 29.5092 51.7555 29.0259 52.35 28.4099C53.4001 27.2563 53.9597 25.7391 53.91 24.1799C53.9136 23.8046 53.8835 23.4298 53.82 23.0599H47.74ZM93.05 24.4599C92.7892 23.6927 92.3015 23.0227 91.6515 22.5388C91.0015 22.0548 90.2198 21.7797 89.41 21.7499C88.863 21.7489 88.3216 21.86 87.8192 22.0765C87.3169 22.2929 86.8643 22.6101 86.4894 23.0085C86.1145 23.4068 85.8253 23.8778 85.6396 24.3923C85.454 24.9068 85.3758 25.454 85.41 25.9999C85.4015 26.9128 85.6885 27.8039 86.2281 28.5402C86.7678 29.2765 87.5312 29.8184 88.4043 30.0851C89.2773 30.3517 90.2133 30.3288 91.0722 30.0196C91.9312 29.7105 92.6671 29.1318 93.17 28.3699L91.72 27.3699C91.5039 27.7302 91.1973 28.0277 90.8307 28.2329C90.464 28.4382 90.0501 28.544 89.63 28.5399C89.1966 28.5578 88.7679 28.4442 88.4002 28.214C88.0326 27.9837 87.7432 27.6477 87.57 27.2499L93.26 24.8999L93.05 24.4599ZM87.25 25.8799C87.2297 25.5693 87.2716 25.2578 87.3733 24.9635C87.4749 24.6693 87.6342 24.3983 87.8419 24.1664C88.0496 23.9346 88.3014 23.7464 88.5827 23.6131C88.864 23.4798 89.169 23.4039 89.48 23.3899C89.8022 23.3703 90.1231 23.4461 90.4023 23.608C90.6816 23.7699 90.9069 24.0106 91.05 24.2999L87.25 25.8799ZM82.63 29.9999H84.5V17.4999H82.63V29.9999ZM79.57 22.6999H79.5C79.2161 22.3909 78.8693 22.1462 78.4829 21.9823C78.0965 21.8185 77.6796 21.7392 77.26 21.7499C76.1672 21.8029 75.1367 22.2743 74.382 23.0665C73.6273 23.8587 73.2063 24.9108 73.2063 26.0049C73.2063 27.099 73.6273 28.1512 74.382 28.9433C75.1367 29.7355 76.1672 30.2069 77.26 30.2599C77.684 30.2684 78.1046 30.1832 78.4918 30.0103C78.879 29.8375 79.2233 29.5812 79.5 29.2599H79.57V29.8699C79.57 31.4999 78.7 32.3699 77.3 32.3699C76.8323 32.3596 76.3783 32.2106 75.9955 31.9418C75.6126 31.6729 75.3184 31.2964 75.15 30.8599L73.53 31.5299C73.8295 32.2822 74.3503 32.9258 75.0234 33.3758C75.6966 33.8257 76.4904 34.0608 77.3 34.0499C79.49 34.0499 81.3 32.7599 81.3 29.6199V21.9999H79.57V22.6999ZM77.42 28.5799C76.7648 28.5391 76.1498 28.25 75.7003 27.7716C75.2508 27.2932 75.0006 26.6614 75.0006 26.0049C75.0006 25.3485 75.2508 24.7167 75.7003 24.2383C76.1498 23.7598 76.7648 23.4708 77.42 23.4299C77.7402 23.4437 78.0544 23.5218 78.3439 23.6596C78.6333 23.7973 78.8921 23.9918 79.1048 24.2316C79.3175 24.4714 79.4798 24.7515 79.5821 25.0553C79.6843 25.3591 79.7244 25.6803 79.7 25.9999C79.7273 26.3206 79.6892 26.6435 79.5882 26.9491C79.4871 27.2546 79.3251 27.5365 79.112 27.7777C78.8988 28.0189 78.639 28.2143 78.3482 28.3522C78.0574 28.4901 77.7416 28.5676 77.42 28.5799ZM101.81 17.4999H97.33V29.9999H99.2V25.2599H101.81C102.343 25.2982 102.878 25.2263 103.382 25.0486C103.886 24.871 104.348 24.5915 104.739 24.2274C105.13 23.8634 105.442 23.4227 105.655 22.9328C105.869 22.4428 105.979 21.9142 105.979 21.3799C105.979 20.8456 105.869 20.317 105.655 19.8271C105.442 19.3372 105.13 18.8965 104.739 18.5324C104.348 18.1684 103.886 17.8888 103.382 17.7112C102.878 17.5336 102.343 17.4616 101.81 17.4999ZM101.81 23.4999H99.2V19.2399H101.85C102.418 19.2399 102.962 19.4654 103.363 19.8667C103.765 20.268 103.99 20.8124 103.99 21.3799C103.99 21.9475 103.765 22.4918 103.363 22.8931C102.962 23.2945 102.418 23.5199 101.85 23.5199L101.81 23.4999ZM113.35 21.7099C112.669 21.6679 111.991 21.8265 111.399 22.1659C110.807 22.5054 110.328 23.0109 110.02 23.6199L111.67 24.3099C111.837 24.0093 112.087 23.7634 112.39 23.6019C112.694 23.4405 113.038 23.3703 113.38 23.3999C113.617 23.3722 113.858 23.392 114.088 23.4582C114.317 23.5245 114.531 23.6358 114.718 23.7856C114.904 23.9355 115.058 24.1209 115.172 24.3311C115.286 24.5413 115.356 24.7721 115.38 25.0099V25.1299C114.779 24.8138 114.109 24.6491 113.43 24.6499C111.65 24.6499 109.83 25.6499 109.83 27.4699C109.848 27.8568 109.943 28.2361 110.11 28.5855C110.277 28.9348 110.513 29.247 110.803 29.5035C111.093 29.7601 111.431 29.9557 111.799 30.0787C112.166 30.2018 112.554 30.2498 112.94 30.2199C113.409 30.2459 113.877 30.1466 114.295 29.9322C114.713 29.7178 115.067 29.3961 115.32 28.9999H115.38V29.9999H117.18V25.1899C117.18 22.9999 115.52 21.7299 113.39 21.7299L113.35 21.7099ZM113.12 28.5599C112.51 28.5599 111.66 28.2499 111.66 27.4999C111.66 26.4999 112.72 26.1599 113.66 26.1599C114.254 26.1453 114.841 26.2903 115.36 26.5799C115.297 27.123 115.04 27.6249 114.635 27.9926C114.231 28.3604 113.707 28.569 113.16 28.5799L113.12 28.5599ZM123.74 21.9999L121.6 27.4199H121.54L119.32 21.9999H117.32L120.65 29.5799L118.75 33.7899H120.75L125.82 21.9999H123.74ZM106.94 29.9999H108.8V17.4999H106.94V29.9999Z" fill="white"/>
<path d="M10.44 7.53997C10.1212 7.93403 9.96397 8.43441 10 8.93997V31.06C9.96597 31.5704 10.1349 32.0735 10.47 32.46L10.54 32.54L22.9 20.15V19.85L10.51 7.46997L10.44 7.53997Z" fill="url(#paint0_linear)"/>
<path d="M27 24.28L22.9 20.15V19.85L27 15.72L27.09 15.78L32 18.56C33.4 19.35 33.4 20.65 32 21.45L27.11 24.23L27 24.28Z" fill="url(#paint1_linear)"/>
<path d="M27.12 24.23L22.9 20L10.44 32.46C10.7226 32.7115 11.0843 32.8562 11.4624 32.869C11.8404 32.8818 12.2111 32.7619 12.51 32.53L27.12 24.23Z" fill="url(#paint2_linear)"/>
<path d="M27.12 15.78L12.51 7.47997C12.213 7.24488 11.8427 7.12203 11.4641 7.133C11.0855 7.14397 10.7229 7.28808 10.44 7.53997L22.9 20L27.12 15.78Z" fill="url(#paint3_linear)"/>
<path opacity="0.2" d="M27 24.1299L12.51 32.3799C12.2219 32.5973 11.8709 32.7149 11.51 32.7149C11.1491 32.7149 10.7981 32.5973 10.51 32.3799L10.44 32.4499L10.51 32.5299C10.7981 32.7473 11.1491 32.8649 11.51 32.8649C11.8709 32.8649 12.2219 32.7473 12.51 32.5299L27.12 24.2299L27 24.1299Z" fill="black"/>
<path opacity="0.12" d="M10.44 32.3199C10.1188 31.9233 9.96138 31.4188 10 30.9099V31.0599C9.96597 31.5703 10.1349 32.0735 10.47 32.4599L10.54 32.3899L10.44 32.3199Z" fill="black"/>
<path opacity="0.12" d="M32 21.3L27 24.13L27.09 24.23L32 21.44C32.2898 21.3174 32.5413 21.119 32.7278 20.8656C32.9143 20.6122 33.0291 20.3132 33.06 20C32.9975 20.2846 32.869 20.5505 32.6849 20.7763C32.5007 21.0021 32.2662 21.1815 32 21.3Z" fill="black"/>
<path opacity="0.25" d="M12.51 7.61998L32 18.7C32.2662 18.8185 32.5007 18.9979 32.6849 19.2237C32.869 19.4495 32.9975 19.7154 33.06 20C33.0291 19.6868 32.9143 19.3878 32.7278 19.1344C32.5413 18.881 32.2898 18.6825 32 18.56L12.51 7.47998C11.12 6.67998 10 7.33998 10 8.93998V9.08998C10 7.48998 11.12 6.82998 12.51 7.61998Z" fill="white"/>
<defs>
<linearGradient id="paint0_linear" x1="21.8" y1="8.70997" x2="5.01999" y2="25.49" gradientUnits="userSpaceOnUse">
<stop stop-color="#00A0FF"/>
<stop offset="0.01" stop-color="#00A1FF"/>
<stop offset="0.26" stop-color="#00BEFF"/>
<stop offset="0.51" stop-color="#00D2FF"/>
<stop offset="0.76" stop-color="#00DFFF"/>
<stop offset="1" stop-color="#00E3FF"/>
</linearGradient>
<linearGradient id="paint1_linear" x1="33.83" y1="20" x2="9.63999" y2="20" gradientUnits="userSpaceOnUse">
<stop stop-color="#FFE000"/>
<stop offset="0.41" stop-color="#FFBD00"/>
<stop offset="0.78" stop-color="#FFA500"/>
<stop offset="1" stop-color="#FF9C00"/>
</linearGradient>
<linearGradient id="paint2_linear" x1="24.83" y1="22.3" x2="2.07" y2="45.05" gradientUnits="userSpaceOnUse">
<stop stop-color="#FF3A44"/>
<stop offset="1" stop-color="#C31162"/>
</linearGradient>
<linearGradient id="paint3_linear" x1="7.3" y1="0.179969" x2="17.46" y2="10.34" gradientUnits="userSpaceOnUse">
<stop stop-color="#32A071"/>
<stop offset="0.07" stop-color="#2DA771"/>
<stop offset="0.48" stop-color="#15CF74"/>
<stop offset="0.8" stop-color="#06E775"/>
<stop offset="1" stop-color="#00F076"/>
</linearGradient>
</defs>
</svg>
