<svg width="130" height="35" viewBox="0 0 130 35" fill="none" xmlns="http://www.w3.org/2000/svg">
<path d="M0.8 1.24H8.32V27H0.8V1.24ZM11.9328 8.04H18.9728L19.1728 9.48C19.9461 8.94667 20.9328 8.50667 22.1328 8.16C23.3328 7.81333 24.5728 7.64 25.8528 7.64C28.2261 7.64 29.9595 8.22667 31.0528 9.4C32.1461 10.5733 32.6928 12.3867 32.6928 14.84V27H25.1728V15.6C25.1728 14.7467 24.9728 14.1333 24.5728 13.76C24.1995 13.3867 23.5595 13.2 22.6528 13.2C22.0928 13.2 21.5195 13.3333 20.9328 13.6C20.3461 13.84 19.8528 14.16 19.4528 14.56V27H11.9328V8.04ZM43.4734 27.4C41.9001 27.4 40.3934 27.28 38.9534 27.04C37.5134 26.8267 36.3668 26.5467 35.5134 26.2V20.8C36.3934 21.2267 37.4734 21.56 38.7534 21.8C40.0334 22.04 41.1668 22.16 42.1534 22.16C43.3268 22.16 44.1001 22.1333 44.4734 22.08C44.8734 22 45.0734 21.7733 45.0734 21.4C45.0734 21.08 44.8601 20.8267 44.4334 20.64C44.0334 20.4533 43.3668 20.2267 42.4334 19.96L40.4334 19.32C38.5934 18.6533 37.2734 17.9067 36.4734 17.08C35.6734 16.2533 35.2734 15.08 35.2734 13.56C35.2734 9.61333 38.3668 7.64 44.5534 7.64C45.7268 7.64 46.9668 7.73333 48.2734 7.92C49.5801 8.10667 50.6334 8.32 51.4334 8.56V13.84C50.6601 13.52 49.7934 13.28 48.8334 13.12C47.9001 12.9333 47.0334 12.84 46.2334 12.84C45.1401 12.84 44.3134 12.8933 43.7534 13C43.2201 13.08 42.9534 13.2933 42.9534 13.64C42.9534 13.9333 43.1268 14.16 43.4734 14.32C43.8468 14.48 44.4868 14.68 45.3934 14.92L47.1534 15.44C48.5934 15.8667 49.7134 16.3333 50.5134 16.84C51.3401 17.3467 51.9134 17.96 52.2334 18.68C52.5801 19.3733 52.7534 20.2667 52.7534 21.36C52.7534 23.3067 51.9668 24.8 50.3934 25.84C48.8201 26.88 46.5134 27.4 43.4734 27.4ZM57.7256 0.0799985H65.8456V5.52H57.7256V0.0799985ZM58.3256 13.52H55.5656L56.2056 8.04H65.8456V27H58.3256V13.52ZM77.7528 34.04C76.2061 34.04 74.6195 33.9467 72.9928 33.76C71.3661 33.6 70.0995 33.36 69.1928 33.04V28.24C70.2061 28.5867 71.4728 28.8533 72.9928 29.04C74.5128 29.2267 75.9528 29.32 77.3128 29.32C78.8061 29.32 79.9395 29.24 80.7128 29.08C81.4861 28.9467 81.8728 28.6933 81.8728 28.32C81.8728 28 81.7395 27.7867 81.4728 27.68C81.2061 27.6 80.6995 27.56 79.9528 27.56H74.9528C72.9795 27.56 71.4728 27.2533 70.4328 26.64C69.3928 26 68.8728 25.0533 68.8728 23.8C68.8728 22.9467 69.1128 22.2133 69.5928 21.6C70.0995 20.96 70.8328 20.4667 71.7928 20.12C70.6995 19.56 69.8995 18.8533 69.3928 18C68.8861 17.1467 68.6328 16.0667 68.6328 14.76C68.6328 10.0133 71.8728 7.64 78.3528 7.64C78.9661 7.64 79.6861 7.69333 80.5128 7.8C81.3395 7.88 81.9661 7.96 82.3928 8.04H89.8328L89.6728 12.6H87.1528C87.6328 13.2133 87.8728 13.96 87.8728 14.84C87.8728 16.84 87.2861 18.4 86.1128 19.52C84.9395 20.6133 83.1795 21.16 80.8328 21.16C80.2461 21.16 79.4995 21.1067 78.5928 21C77.1528 21.16 76.4328 21.5333 76.4328 22.12C76.4328 22.3867 76.5395 22.5733 76.7528 22.68C76.9661 22.76 77.3128 22.8 77.7928 22.8H82.1528C84.1261 22.8 85.6595 23.2667 86.7528 24.2C87.8728 25.1067 88.4328 26.4267 88.4328 28.16C88.4328 30.0533 87.5395 31.5067 85.7528 32.52C83.9928 33.5333 81.3261 34.04 77.7528 34.04ZM78.3928 17.04C79.5661 17.04 80.3795 16.8533 80.8328 16.48C81.2861 16.08 81.5128 15.4 81.5128 14.44C81.5128 13.48 81.2728 12.8 80.7928 12.4C80.3395 11.9733 79.5395 11.76 78.3928 11.76C77.2995 11.76 76.4995 11.9733 75.9928 12.4C75.5128 12.8 75.2728 13.48 75.2728 14.44C75.2728 15.3467 75.4995 16.0133 75.9528 16.44C76.4328 16.84 77.2461 17.04 78.3928 17.04ZM92.05 0.039999H99.57V9.2C100.263 8.74667 101.117 8.37333 102.13 8.08C103.143 7.78667 104.197 7.64 105.29 7.64C107.877 7.64 109.77 8.25333 110.97 9.48C112.197 10.68 112.81 12.5467 112.81 15.08V27H105.25V15.64C105.25 14.76 105.063 14.1333 104.69 13.76C104.317 13.3867 103.677 13.2 102.77 13.2C102.21 13.2 101.637 13.3333 101.05 13.6C100.463 13.84 99.97 14.16 99.57 14.56V27H92.05V0.039999ZM124.311 27.4C121.831 27.4 120.004 26.7867 118.831 25.56C117.657 24.3067 117.071 22.5467 117.071 20.28V13.6H114.591V8.04H117.071V4.16L124.591 2.36V8.04H128.951L128.671 13.6H124.591V19.72C124.591 20.52 124.777 21.0933 125.151 21.44C125.551 21.76 126.177 21.92 127.031 21.92C127.804 21.92 128.591 21.7867 129.391 21.52V26.52C127.977 27.1067 126.284 27.4 124.311 27.4Z" fill="#212C4F"/>
</svg>
