<svg width="712" height="584" viewBox="0 0 712 584" fill="none" xmlns="http://www.w3.org/2000/svg">
<path d="M5.17018 579.975C5.17018 581.103 4.66164 581.644 4.06834 581.644C3.60217 581.644 3.26315 581.419 3.17839 581.013C3.00888 581.238 2.7546 581.374 2.41558 581.374C1.7799 581.374 1.31373 580.832 1.31373 580.11C1.31373 579.389 1.7799 578.847 2.41558 578.847C2.71223 578.847 2.92412 578.983 3.09363 579.163V578.937H3.77169V580.697C3.77169 581.058 3.89882 581.329 4.19547 581.329C4.57688 581.329 4.91591 580.922 4.91591 579.975C4.91591 578.622 3.9412 577.584 2.62747 577.584C1.31373 577.584 0.25427 578.667 0.25427 580.156C0.25427 581.644 1.31373 582.727 2.7546 582.727C3.22077 582.727 3.64455 582.637 3.98358 582.547V582.817C3.64455 582.953 3.26315 582.998 2.7546 582.998C1.1866 582.998 0 581.825 0 580.201C0 578.667 1.14422 577.404 2.62747 577.404C4.28023 577.313 5.17018 578.712 5.17018 579.975ZM3.09363 580.11C3.09363 579.749 2.83936 579.479 2.54271 579.479C2.20368 579.479 1.99179 579.704 1.99179 580.11C1.99179 580.471 2.24606 580.697 2.54271 580.697C2.88174 580.742 3.09363 580.471 3.09363 580.11Z" fill="#EEF2F4"/>
<path d="M7.79766 578.125V579.028C7.28912 578.983 6.69582 579.253 6.69582 580.11V582.05H5.89063V578.17H6.69582V578.802C6.90772 578.306 7.3315 578.125 7.79766 578.125Z" fill="#EEF2F4"/>
<path d="M10.0013 581.374C10.4251 581.374 10.7642 581.148 10.9337 580.877L11.5693 581.283C11.2303 581.825 10.6794 582.141 9.95896 582.141C8.77236 582.141 7.96717 581.284 7.96717 580.111C7.96717 578.983 8.72998 578.08 9.8742 578.08C10.976 578.08 11.6965 579.028 11.6965 580.111C11.6965 580.246 11.6965 580.336 11.6541 580.471H8.77236C8.94187 581.058 9.40804 581.374 10.0013 581.374ZM10.976 579.795C10.8489 579.118 10.4251 578.847 9.91658 578.847C9.32328 578.847 8.94188 579.208 8.81474 579.795H10.976Z" fill="#EEF2F4"/>
<path d="M16.0615 578.17V582.05H15.2563V581.509C14.9596 581.915 14.5358 582.186 13.9849 582.186C13.0102 582.186 12.1626 581.283 12.1626 580.156C12.1626 578.983 12.9678 578.125 13.9849 578.125C14.5358 578.125 14.9596 578.351 15.2563 578.757V578.216H16.0615V578.17ZM15.2986 580.11C15.2986 579.389 14.7901 578.892 14.1544 578.892C13.5188 578.892 13.0102 579.389 13.0102 580.11C13.0102 580.832 13.5188 581.329 14.1544 581.329C14.7901 581.374 15.2986 580.832 15.2986 580.11Z" fill="#EEF2F4"/>
<path d="M16.9938 576.411H17.799V582.05H16.9938V576.411Z" fill="#EEF2F4"/>
<path d="M21.9944 578.17L20.596 582.05H19.706L18.3075 578.17H19.1551L20.1722 581.103L21.1893 578.17H21.9944Z" fill="#EEF2F4"/>
<path d="M22.5454 578.171H23.3506V582.186C23.3506 583.269 22.842 583.765 21.8673 583.675V582.863C22.3335 582.908 22.5877 582.727 22.5877 582.186V578.171H22.5454ZM22.4606 577.088C22.4606 576.772 22.6725 576.546 22.9691 576.546C23.2658 576.546 23.4777 576.772 23.4777 577.088C23.4777 577.358 23.2658 577.629 22.9691 577.629C22.6725 577.629 22.4606 577.358 22.4606 577.088Z" fill="#EEF2F4"/>
<path d="M27.546 578.17L26.1475 582.141C25.8085 583.133 25.2152 583.629 24.3676 583.584V582.817C24.8762 582.862 25.1728 582.592 25.3423 582.05L25.3847 581.96L23.8591 578.17H24.7067L25.8085 580.968L26.7408 578.17H27.546Z" fill="#EEF2F4"/>
<path d="M68.187 570.726C68.187 571.674 67.5514 572.441 66.6614 572.441H65.3901V569.012H66.6614C67.5514 569.012 68.187 569.779 68.187 570.726ZM67.7633 570.726C67.7633 570.005 67.2971 569.418 66.6614 569.418H65.8138V571.99H66.6614C67.2971 572.035 67.7633 571.448 67.7633 570.726Z" fill="#EEF2F4"/>
<path d="M71.4078 571.674H69.9669L69.7127 572.441H69.2465L70.4331 569.012H70.8993L72.0859 572.441H71.6197L71.4078 571.674ZM71.2807 571.268L70.6874 569.553L70.0941 571.268H71.2807Z" fill="#EEF2F4"/>
<path d="M74.3319 571.042V572.441H73.9081V571.042L72.7639 569.012H73.2301L74.12 570.636L75.01 569.012H75.4761L74.3319 571.042Z" fill="#EEF2F4"/>
<path d="M79.8835 569.012V572.441H79.4597V569.508L78.7817 569.734L78.6545 569.328L79.5021 569.012H79.8835Z" fill="#EEF2F4"/>
<path d="M83.5281 571.448C83.5281 572.125 83.0195 572.531 82.4262 572.531C81.9601 572.531 81.5363 572.305 81.3668 571.854L81.7482 571.629C81.8329 571.944 82.0872 572.125 82.4686 572.125C82.85 572.125 83.1467 571.899 83.1467 571.493C83.1467 571.087 82.85 570.862 82.4686 570.862H82.3415L82.172 570.591L82.9348 569.508H81.4939V569.102H83.4433V569.508L82.7229 570.501C83.1467 570.501 83.5281 570.862 83.5281 571.448Z" fill="#EEF2F4"/>
<path d="M3.34791 570.726C3.34791 571.674 2.71223 572.441 1.82228 572.441H0.550926V569.012H1.82228C2.71223 569.012 3.34791 569.779 3.34791 570.726ZM2.92412 570.726C2.92412 570.005 2.45796 569.418 1.82228 569.418H0.974711V571.99H1.82228C2.45796 572.035 2.92412 571.448 2.92412 570.726Z" fill="#EEF2F4"/>
<path d="M6.78054 572.035V572.486H4.83113V569.057H6.73817V569.508H5.25492V570.546H6.61103V570.952H5.25492V572.035H6.78054Z" fill="#EEF2F4"/>
<path d="M8.05191 571.674L8.43332 571.448C8.56045 571.809 8.81472 572.08 9.28089 572.08C9.74705 572.08 9.95894 571.854 9.95894 571.539C9.95894 571.178 9.66229 571.087 9.19613 570.907C8.68759 570.726 8.17905 570.546 8.17905 569.914C8.17905 569.283 8.64521 568.922 9.19613 568.922C9.74705 568.922 10.1285 569.238 10.298 569.689L9.95894 569.914C9.83181 569.599 9.61992 569.373 9.23851 569.373C8.89948 569.373 8.64521 569.553 8.64521 569.869C8.64521 570.185 8.8571 570.32 9.32327 570.456C9.87419 570.636 10.4251 570.817 10.4251 571.493C10.4251 572.08 9.95894 572.486 9.32327 572.486C8.68759 572.531 8.22142 572.17 8.05191 571.674Z" fill="#EEF2F4"/>
<path d="M12.2898 569.012V572.441H11.866V569.012H12.2898Z" fill="#EEF2F4"/>
<path d="M17.0785 570.952C17.0785 571.809 16.4852 572.531 15.5105 572.531C14.4934 572.531 13.8154 571.719 13.8154 570.726C13.8154 569.734 14.5358 568.922 15.5105 568.922C16.1038 568.922 16.6547 569.283 16.909 569.734L16.5276 569.959C16.3581 569.599 15.9343 569.328 15.5105 569.328C14.7477 569.328 14.2392 569.914 14.2392 570.681C14.2392 571.448 14.7477 572.035 15.5105 572.035C16.1886 572.035 16.57 571.629 16.6547 571.132H15.4681V570.726H17.0785V570.952Z" fill="#EEF2F4"/>
<path d="M21.0197 569.012V572.441H20.6807L19.0279 569.869V572.441H18.6042V569.012H18.9432L20.5959 571.584V569.012H21.0197Z" fill="#EEF2F4"/>
<path d="M24.6219 572.035V572.486H22.6725V569.057H24.5795V569.508H23.0963V570.546H24.4524V570.952H23.0963V572.035H24.6219Z" fill="#EEF2F4"/>
<path d="M28.9021 570.726C28.9021 571.674 28.2664 572.441 27.3765 572.441H26.1051V569.012H27.3765C28.2241 569.012 28.9021 569.779 28.9021 570.726ZM28.4783 570.726C28.4783 570.005 28.0122 569.418 27.3765 569.418H26.5289V571.99H27.3765C28.0122 572.035 28.4783 571.448 28.4783 570.726Z" fill="#EEF2F4"/>
<path d="M34.8351 571.493C34.8351 572.035 34.4113 572.486 33.9028 572.486H32.5043V569.057H33.7757C34.2842 569.057 34.6656 569.463 34.6656 570.005C34.6656 570.32 34.5385 570.546 34.3266 570.726C34.6232 570.817 34.8351 571.087 34.8351 571.493ZM32.9281 569.418V570.456H33.7757C34.0299 570.456 34.2418 570.23 34.2418 569.914C34.2418 569.644 34.0299 569.373 33.7757 569.373H32.9281V569.418ZM34.4113 571.448C34.4113 571.132 34.1995 570.907 33.9028 570.907H32.9281V572.035H33.9028C34.1995 572.035 34.4113 571.764 34.4113 571.448Z" fill="#EEF2F4"/>
<path d="M37.4626 571.042V572.441H37.0388V571.042L35.8946 569.012H36.3607L37.2507 570.636L38.1406 569.012H38.6068L37.4626 571.042Z" fill="#EEF2F4"/>
<path d="M66.3224 576.682V582.276H65.4748V576.682H66.3224Z" fill="#EEF2F4"/>
<path d="M70.7721 577.584H69.2889V582.276H68.4413V577.584H66.958V576.727H70.7721V577.584Z" fill="#EEF2F4"/>
<path d="M78.4003 579.749C78.4003 581.283 77.3832 582.366 75.8152 582.366C74.1624 582.366 73.0182 581.058 73.0182 579.479C73.0182 577.9 74.2048 576.591 75.7728 576.591C76.7899 576.591 77.6374 577.133 78.0612 577.9L77.2984 578.351C77.0441 577.809 76.4508 577.449 75.7728 577.449C74.671 577.449 73.8658 578.306 73.8658 579.479C73.8658 580.607 74.6286 581.464 75.8152 581.464C76.7475 581.464 77.3408 580.922 77.5103 580.201H75.7728V579.389H78.4003V579.749Z" fill="#EEF2F4"/>
<path d="M79.036 577.133C79.036 576.817 79.2478 576.591 79.5445 576.591C79.8411 576.591 80.053 576.817 80.053 577.133C80.053 577.449 79.8411 577.674 79.5445 577.674C79.2478 577.674 79.036 577.449 79.036 577.133ZM79.1631 578.261H79.9683V582.276H79.1631V578.261Z" fill="#EEF2F4"/>
<path d="M82.85 578.215V579.163C82.2991 579.118 81.7058 579.388 81.7058 580.291V582.321H80.9006V578.306H81.7058V578.982C81.9177 578.396 82.3838 578.215 82.85 578.215Z" fill="#EEF2F4"/>
<path d="M83.4433 576.456H84.2485V582.276H83.4433V576.456Z" fill="#EEF2F4"/>
<path d="M334.917 572.441H334.494V569.012H334.96L335.977 570.817L336.994 569.012H337.46V572.441H337.036V569.734L335.977 571.629H335.935L334.875 569.779V572.441H334.917ZM342.334 570.726C342.334 571.719 341.613 572.531 340.639 572.531C339.706 572.531 338.986 571.719 338.986 570.726C338.986 569.734 339.706 568.922 340.639 568.922C341.613 568.922 342.334 569.734 342.334 570.726ZM341.91 570.726C341.91 569.959 341.359 569.373 340.681 569.373C339.96 569.373 339.452 569.959 339.452 570.726C339.452 571.493 340.003 572.08 340.681 572.08C341.401 572.08 341.91 571.493 341.91 570.726ZM345.47 571.087L346.233 572.486H345.766L345.046 571.178H344.283V572.486H343.859V569.057H345.131C345.682 569.057 346.148 569.553 346.148 570.14C346.148 570.501 345.851 570.907 345.47 571.087ZM345.131 570.726C345.47 570.726 345.724 570.456 345.724 570.095C345.724 569.734 345.47 569.463 345.131 569.463H344.283V570.726H345.131ZM349.58 572.035H348.097V570.952H349.453V570.546H348.097V569.508H349.58V569.057H347.673V572.486H349.623V572.035H349.58ZM336.146 581.329L335.087 578.306H334.197L335.68 582.321H336.613L338.096 578.306H337.206L336.146 581.329ZM338.604 582.276H339.41V578.261H338.604V582.276ZM339.028 576.591C338.732 576.591 338.52 576.817 338.52 577.133C338.52 577.449 338.732 577.674 339.028 577.674C339.325 577.674 339.537 577.404 339.537 577.133C339.537 576.817 339.282 576.591 339.028 576.591ZM340.808 576.591C340.511 576.591 340.3 576.817 340.3 577.133C340.3 577.449 340.511 577.674 340.808 577.674C341.105 577.674 341.317 577.404 341.317 577.133C341.359 576.817 341.105 576.591 340.808 576.591ZM340.427 582.456C340.427 582.998 340.215 583.223 339.706 583.178V583.99C340.723 584.081 341.232 583.539 341.232 582.456V578.306H340.427V582.456ZM345.131 578.261H345.936V582.276H345.131V581.689C344.834 582.096 344.41 582.366 343.817 582.366C342.8 582.366 341.952 581.464 341.952 580.246C341.952 579.073 342.8 578.125 343.817 578.125C344.41 578.125 344.834 578.396 345.131 578.802V578.261ZM345.131 580.291C345.131 579.569 344.622 579.028 343.944 579.028C343.266 579.028 342.757 579.569 342.757 580.291C342.757 581.013 343.266 581.554 343.944 581.554C344.622 581.554 345.131 581.013 345.131 580.291ZM348.479 581.193L347.377 578.306H346.487L348.097 582.231L348.055 582.321C347.885 582.862 347.589 583.133 347.038 583.088V583.9C347.885 583.945 348.521 583.449 348.86 582.411L350.301 578.306H349.453L348.479 581.193ZM352.293 581.329L351.233 578.306H350.343L351.826 582.321H352.759L354.242 578.306H353.352L352.293 581.329ZM358.268 580.291C358.268 580.426 358.268 580.516 358.226 580.652H355.259C355.386 581.283 355.852 581.599 356.446 581.599C356.912 581.599 357.251 581.374 357.42 581.103L358.098 581.509C357.759 582.05 357.209 582.366 356.446 582.366C355.217 582.366 354.412 581.464 354.412 580.246C354.412 579.073 355.217 578.125 356.403 578.125C357.463 578.17 358.268 579.118 358.268 580.291ZM357.42 579.93C357.293 579.253 356.827 578.937 356.361 578.937C355.768 578.937 355.344 579.298 355.217 579.93H357.42ZM359.751 578.937V578.261H358.946V582.276H359.751V580.246C359.751 579.343 360.387 579.073 360.895 579.118V578.17C360.472 578.216 360.006 578.396 359.751 578.937ZM365.642 578.17C365.133 578.17 364.752 578.396 364.498 578.802C364.286 578.396 363.904 578.17 363.438 578.17C362.972 578.17 362.591 578.351 362.379 578.757V578.261H361.574V582.276H362.379V580.02C362.379 579.298 362.76 578.983 363.226 578.983C363.65 578.983 363.947 579.298 363.947 579.84V582.276H364.752V580.02C364.752 579.298 365.091 578.983 365.557 578.983C365.981 578.983 366.278 579.298 366.278 579.84V582.276H367.083V579.795C367.04 578.802 366.489 578.17 365.642 578.17ZM370.897 578.261H371.702V582.276H370.897V581.689C370.6 582.096 370.176 582.366 369.583 582.366C368.566 582.366 367.718 581.464 367.718 580.246C367.718 579.073 368.566 578.125 369.583 578.125C370.176 578.125 370.6 578.396 370.897 578.802V578.261ZM370.897 580.291C370.897 579.569 370.388 579.028 369.71 579.028C369.032 579.028 368.524 579.569 368.524 580.291C368.524 581.013 369.032 581.554 369.71 581.554C370.388 581.554 370.897 581.013 370.897 580.291ZM373.143 581.193C372.846 581.193 372.592 581.464 372.592 581.78C372.592 582.096 372.846 582.366 373.143 582.366C373.44 582.366 373.694 582.096 373.694 581.78C373.694 581.419 373.44 581.193 373.143 581.193ZM376.025 581.509C375.347 581.509 374.88 580.968 374.88 580.246C374.88 579.524 375.389 578.983 376.025 578.983C376.491 578.983 376.83 579.208 376.999 579.614L377.677 579.163C377.381 578.531 376.745 578.125 376.025 578.125C374.88 578.125 374.033 579.028 374.033 580.246C374.033 581.419 374.88 582.366 376.025 582.366C376.745 582.366 377.381 581.96 377.72 581.329L377.042 580.922C376.83 581.283 376.448 581.509 376.025 581.509ZM382 580.291C382 581.464 381.11 582.411 380.008 582.411C378.906 582.411 378.016 581.509 378.016 580.291C378.016 579.118 378.906 578.17 380.008 578.17C381.11 578.17 382 579.073 382 580.291ZM381.195 580.291C381.195 579.569 380.686 579.028 380.008 579.028C379.33 579.028 378.822 579.569 378.822 580.291C378.822 581.013 379.33 581.554 380.008 581.554C380.686 581.554 381.195 581.013 381.195 580.291Z" fill="#EEF2F4"/>
<path opacity="0.34" d="M328.645 516.227H66.2376C62.8897 516.227 60.1775 513.34 60.1775 509.776C60.1775 506.212 62.8897 503.324 66.2376 503.324H328.645C331.993 503.324 334.706 506.212 334.706 509.776C334.706 513.34 331.993 516.227 328.645 516.227Z" fill="black"/>
<path d="M347.928 431.23H294.573C289.149 431.23 284.741 426.538 284.741 420.763C284.741 414.989 289.149 410.297 294.573 410.297H324.365C330.807 410.297 336.019 404.747 336.019 397.89C336.019 391.032 330.807 385.483 324.365 385.483H297.879C290.632 385.483 284.741 379.212 284.741 371.497C284.741 363.783 290.632 357.512 297.879 357.512H327.332C333.773 357.512 339.028 351.917 339.028 345.06C339.028 338.202 333.773 332.608 327.332 332.608H284.784H274.613C268.171 332.608 262.916 327.014 262.916 320.156C262.916 313.299 268.171 307.704 274.613 307.704H286.14C292.581 307.704 297.836 302.11 297.836 295.253C297.836 288.395 292.581 282.801 286.14 282.801H279.571H278.469H208.841H206.468H133.747H117.092C110.65 282.801 105.395 288.395 105.395 295.253C105.395 302.11 110.65 307.704 117.092 307.704H122.05C128.492 307.704 133.747 313.299 133.747 320.156C133.747 327.014 128.492 332.608 122.05 332.608H77.4255C72.4673 332.608 68.4413 336.894 68.4413 342.172C68.4413 347.451 72.4673 351.737 77.4255 351.737H124.423C129.594 351.737 133.789 356.203 133.789 361.707C133.789 367.211 129.594 371.678 124.423 371.678H49.4133C42.9718 371.678 37.7169 377.272 37.7169 384.13C37.7169 390.987 42.9718 396.582 49.4133 396.582H122.05C128.492 396.582 133.747 402.176 133.747 409.033C133.747 415.891 128.492 421.485 122.05 421.485H78.1884C67.848 421.485 59.4571 430.418 59.4571 441.426C59.4571 452.434 67.848 461.367 78.1884 461.367H133.747H158.411H172.269H284.784H347.928C355.725 461.367 362.04 454.645 362.04 446.344C362.04 437.952 355.725 431.23 347.928 431.23Z" fill="#65706C"/>
<path d="M248.935 509.787H256.563V387.614H248.935V509.787Z" fill="#2F262D"/>
<path d="M219.902 412.236C218.673 409.304 219.902 405.83 222.699 404.477C223.42 404.161 224.182 403.98 224.945 403.98C227.107 403.98 229.098 405.334 229.988 407.454L257.111 472.51L247.024 477.293L219.902 412.236Z" fill="#FC9F6F"/>
<path d="M174.559 509.787H182.187V387.614H174.559V509.787Z" fill="#2F262D"/>
<path d="M209.858 395.589C183.626 395.589 162.394 374.295 162.394 348.083C162.394 341.315 163.835 334.864 166.378 328.999C149.681 336.353 138.027 353.09 138.027 372.49C138.027 398.747 159.258 419.996 185.491 419.996C204.943 419.996 221.64 408.311 228.971 391.574C223.081 394.145 216.639 395.589 209.858 395.589Z" fill="#F2F2F2"/>
<path d="M183.584 408.447C197.931 408.447 209.562 397.075 209.562 383.047C209.562 369.019 197.931 357.647 183.584 357.647C169.236 357.647 157.606 369.019 157.606 383.047C157.606 397.075 169.236 408.447 183.584 408.447Z" fill="#3B323A"/>
<path d="M136.798 387.603H78.6969C76.4932 387.603 74.6709 385.664 74.6709 383.318V379.257C74.6709 376.911 76.4932 374.971 78.6969 374.971H136.798C139.002 374.971 140.824 376.911 140.824 379.257V383.318C140.824 385.664 139.002 387.603 136.798 387.603Z" fill="#1D243B"/>
<path d="M206.087 363.692C197.95 363.692 191.339 356.654 191.339 347.992V332.292C191.339 326.292 186.805 321.464 181.168 321.464V347.992C181.168 362.655 192.314 374.52 206.087 374.52H226.725V363.692H206.087Z" fill="#EF9067"/>
<path d="M209.435 280.816C207.909 301.343 190.958 324.081 175.108 321.194C159.937 318.442 149.511 292.952 154.639 275.086C157.818 264.078 166.548 257.175 173.582 251.626C180.872 245.851 185.787 241.971 191.381 242.919C202.485 244.723 210.664 264.484 209.435 280.816Z" fill="#603936"/>
<path d="M188.033 339.24C187.737 338.879 185.364 335.947 184.94 335.541C183.838 330.713 181.592 325.39 182.058 319.164C178.88 316.682 173.625 313.524 167.649 313.975C165.87 314.111 164.005 314.562 163.073 314.787C157.902 316.051 154.639 318.081 153.58 318.758C152.139 319.705 151.418 320.156 150.571 321.059C148.282 323.585 147.731 326.653 147.435 328.457C144.892 344.158 146.884 359.226 147.138 360.534C147.604 362.925 148.24 365.046 148.24 365.046C149.299 368.61 150.571 370.821 150.91 371.813C152.605 376.686 156.461 386.927 160.53 394.732C163.496 395.228 170.234 398.386 174.684 396.762C181.465 394.281 195.45 388.731 200.45 387.604C194.221 380.16 188.5 371.858 187.016 361.752C186.635 359.136 186.296 356.564 186.042 354.038C186.635 353.722 190.237 351.782 190.958 347.902C191.72 343.706 188.627 339.962 188.033 339.24Z" fill="#F05364"/>
<path d="M172.73 329.717C176.427 328.619 178.451 324.014 177.25 319.43C176.049 314.846 172.079 312.02 168.381 313.117C164.684 314.215 162.66 318.82 163.861 323.404C165.062 327.988 169.032 330.815 172.73 329.717Z" fill="#EF9067"/>
<path d="M169.472 311.178C171.803 317.043 175.659 319.073 178.117 320.607C182.906 323.585 191.89 323.314 191.89 323.314C192.187 321.239 192.483 319.434 194.009 316.006C196.213 310.908 198.247 309.689 201.086 305.088C205.324 298.14 207.443 289.748 206.087 288.936C205.112 288.305 202.442 291.553 200.705 293.448C195.746 298.862 184.643 306.892 169.472 311.178Z" fill="#603936"/>
<path d="M169.302 324.081H167.522C163.623 324.081 160.487 320.743 160.487 316.592V288.124H174.557V318.442C174.557 321.555 172.184 324.081 169.302 324.081Z" fill="#EF9067"/>
<path d="M90.0896 509.787H97.7178L97.7178 387.614H90.0896L90.0896 509.787Z" fill="#2F262D"/>
<path d="M137.007 509.787H144.635V387.614H137.007V509.787Z" fill="#494149"/>
<path d="M294.849 509.787H302.477V387.614H294.849V509.787Z" fill="#494149"/>
<path opacity="0.71" d="M160.487 291.147C161.42 299.764 167.014 306.892 174.557 309.599V286.41H160.487V291.147Z" fill="#D36B46"/>
<path d="M181.168 308.471C170.828 308.471 162.479 299.584 162.479 288.575V264.303C162.479 263.266 163.242 262.454 164.217 262.454H190.788C195.789 262.454 199.857 266.785 199.857 272.108V288.575C199.857 299.584 191.509 308.471 181.168 308.471Z" fill="#FC9F6F"/>
<path d="M199.857 285.733C199.645 286.275 199.137 286.636 198.586 286.636H190.364C189.602 286.636 188.966 285.959 188.966 285.147V280.229C188.966 279.417 189.602 278.74 190.364 278.74H198.586C199.137 278.74 199.645 279.101 199.857 279.643V277.748C199.476 277.522 199.052 277.387 198.586 277.387H190.364C188.881 277.387 187.694 278.65 187.694 280.229V285.147C187.694 286.726 188.881 287.989 190.364 287.989H198.586C199.052 287.989 199.476 287.854 199.857 287.628V285.733Z" fill="#DD9883"/>
<path d="M183.33 287.267H175.108C173.964 287.267 173.074 286.275 173.074 285.102V280.184C173.074 278.966 174.006 278.019 175.108 278.019H183.33C184.474 278.019 185.364 279.011 185.364 280.184V285.102C185.364 286.32 184.431 287.267 183.33 287.267Z" stroke="#DD9883" stroke-width="3" stroke-miterlimit="10" stroke-linecap="round" stroke-linejoin="round"/>
<path opacity="0.6" d="M174.091 292.365V268.093C174.091 267.056 174.854 266.243 175.828 266.243L191.17 260.514C189.517 258.213 193.712 262.499 190.788 262.499H164.217C163.242 262.499 162.479 263.311 162.479 264.349V288.621C162.479 299.629 170.828 308.516 181.168 308.516C181.38 308.516 181.592 308.516 181.846 308.516C177.142 304.862 174.091 298.997 174.091 292.365Z" fill="#EF9067"/>
<path d="M198.586 286.365H190.364C189.22 286.365 188.33 285.372 188.33 284.199V279.282C188.33 278.064 189.262 277.116 190.364 277.116H198.586C199.73 277.116 200.62 278.109 200.62 279.282V284.199C200.62 285.417 199.688 286.365 198.586 286.365Z" stroke="#F6CDF7" stroke-width="3" stroke-miterlimit="10" stroke-linecap="round" stroke-linejoin="round"/>
<path d="M186.042 298.456C183.669 298.456 181.761 296.425 181.761 293.944V291.824H190.237V293.944C190.237 296.425 188.373 298.456 186.042 298.456Z" fill="#FCFAFA"/>
<path d="M178.371 281.177H182.185" stroke="#161515" stroke-width="3" stroke-miterlimit="10" stroke-linecap="round" stroke-linejoin="round"/>
<path d="M192.78 281.177H196.594" stroke="#161515" stroke-width="3" stroke-miterlimit="10" stroke-linecap="round" stroke-linejoin="round"/>
<path d="M183.33 286.365H175.108C173.964 286.365 173.074 285.372 173.074 284.199V279.282C173.074 278.064 174.006 277.116 175.108 277.116H183.33C184.474 277.116 185.364 278.109 185.364 279.282V284.199C185.364 285.417 184.431 286.365 183.33 286.365Z" stroke="#F6CDF7" stroke-width="3" stroke-miterlimit="10" stroke-linecap="round" stroke-linejoin="round"/>
<path d="M189.008 244.182C183.88 237.144 175.15 237.279 173.54 237.099C172.099 236.783 164.174 237.189 158.369 238.813C144.977 242.603 135.654 255.506 135.654 270.304V289.252C135.654 301.975 144.468 317.404 155.783 321.419C162.055 323.675 169.006 325.39 170.658 325.119C162.267 308.562 163.412 298.772 165.785 293.042C171.463 279.056 188.118 279.552 192.229 263.988C192.314 263.536 194.899 252.303 189.008 244.182Z" fill="#754743"/>
<path d="M241.303 374.385C241.727 373.212 241.939 371.949 241.939 370.64C241.939 364.64 237.404 359.812 231.768 359.812C226.132 359.812 221.597 364.64 221.597 370.64C221.597 371.949 221.809 373.212 222.233 374.385H241.303Z" fill="#EF9067"/>
<path d="M208.672 374.971C207.824 370.821 203.12 367.663 197.399 367.663C191.72 367.663 186.974 370.821 186.126 374.971H208.672Z" fill="#F4EFF0"/>
<path d="M152.859 343.391C156.276 343.391 159.047 338.765 159.047 333.059C159.047 327.353 156.276 322.728 152.859 322.728C149.442 322.728 146.672 327.353 146.672 333.059C146.672 338.765 149.442 343.391 152.859 343.391Z" fill="#EF9067"/>
<path d="M171.591 364.053C163.454 364.053 156.843 357.015 156.843 348.353V329.179C156.843 326.202 154.554 323.765 151.757 323.765C148.96 323.765 146.672 326.202 146.672 329.179V348.353C146.672 363.016 157.818 374.881 171.591 374.881H192.229V364.053H181.889H171.591Z" fill="#FC9F6F"/>
<path d="M257.28 374.971H209.816C209.223 374.971 208.714 374.43 208.714 373.798C208.714 373.167 209.223 372.625 209.816 372.625H257.322C257.916 372.625 258.424 373.167 258.424 373.798C258.424 374.43 257.916 374.971 257.28 374.971Z" fill="white"/>
<path d="M257.28 373.798H209.816C209.392 373.798 209.053 373.573 208.841 373.212C208.757 373.392 208.672 373.573 208.672 373.798C208.672 374.43 209.18 374.971 209.774 374.971H257.28C257.873 374.971 258.382 374.43 258.382 373.798C258.382 373.573 258.339 373.392 258.212 373.212C258.043 373.527 257.704 373.798 257.28 373.798Z" fill="#F4EFF0"/>
<path d="M219.012 374.971H209.816C209.223 374.971 208.714 374.43 208.714 373.798C208.714 373.167 209.223 372.625 209.816 372.625H219.012C219.605 372.625 220.114 373.167 220.114 373.798C220.114 374.43 219.648 374.971 219.012 374.971Z" fill="#F4EFF0"/>
<path d="M253.932 372.625H250.457V371.768C250.457 371.317 250.796 370.911 251.262 370.911H253.127C253.551 370.911 253.932 371.272 253.932 371.768V372.625Z" fill="#F4EFF0"/>
<path d="M249.694 372.625H246.219V371.768C246.219 371.317 246.558 370.911 247.024 370.911H248.889C249.313 370.911 249.694 371.272 249.694 371.768V372.625Z" fill="#F4EFF0"/>
<path d="M245.456 372.625H241.981V371.768C241.981 371.317 242.32 370.911 242.787 370.911H244.651C245.075 370.911 245.456 371.272 245.456 371.768V372.625Z" fill="#F4EFF0"/>
<path d="M241.219 372.625H237.743V371.768C237.743 371.317 238.083 370.911 238.549 370.911H240.413C240.837 370.911 241.219 371.272 241.219 371.768V372.625Z" fill="#F4EFF0"/>
<path d="M236.981 372.625H233.506V371.768C233.506 371.317 233.845 370.911 234.311 370.911H236.175C236.599 370.911 236.981 371.272 236.981 371.768V372.625Z" fill="#F4EFF0"/>
<path d="M232.743 372.625H229.268V371.768C229.268 371.317 229.607 370.911 230.073 370.911H231.938C232.361 370.911 232.743 371.272 232.743 371.768V372.625Z" fill="#F4EFF0"/>
<path d="M228.505 372.625H225.03V371.768C225.03 371.317 225.369 370.911 225.835 370.911H227.7C228.124 370.911 228.505 371.272 228.505 371.768V372.625Z" fill="#F4EFF0"/>
<path d="M224.267 372.625H220.792V371.768C220.792 371.317 221.131 370.911 221.597 370.911H223.462C223.886 370.911 224.267 371.272 224.267 371.768V372.625Z" fill="#F4EFF0"/>
<path d="M220.029 372.625H216.554V371.768C216.554 371.317 216.893 370.911 217.359 370.911H219.224C219.648 370.911 220.029 371.272 220.029 371.768V372.625Z" fill="#F4EFF0"/>
<path d="M215.791 372.625H212.316V371.768C212.316 371.317 212.655 370.911 213.122 370.911H214.986C215.41 370.911 215.791 371.272 215.791 371.768V372.625Z" fill="#F4EFF0"/>
<path d="M209.816 374.971H219.012C219.605 374.971 220.114 374.43 220.114 373.798H208.672C208.672 374.43 209.18 374.971 209.816 374.971Z" fill="#E2E2E2"/>
<path d="M213.927 411.605H180.405L180.151 392.656H221.682C224.479 392.656 226.725 395.048 226.725 398.025C226.683 405.559 220.962 411.605 213.927 411.605Z" fill="#352934"/>
<path d="M186.974 480.315L207.528 406.326C208.206 403.845 210.367 402.131 212.825 402.131C213.333 402.131 213.884 402.221 214.393 402.356C217.317 403.258 218.97 406.552 218.122 409.665L197.569 483.654L186.974 480.315Z" fill="#EF9067"/>
<path d="M204.053 474.27L186.974 468.901L208.502 391.438C209.901 386.43 214.859 383.543 219.563 385.032C224.267 386.521 226.979 391.799 225.581 396.807L204.053 474.27Z" fill="#352934"/>
<path d="M288.894 353.045H217.698C216.3 353.045 215.156 351.827 215.156 350.338L223.97 296.2C223.97 294.711 225.115 293.493 226.513 293.493H297.709C299.108 293.493 300.252 294.711 300.252 296.2L291.437 350.338C291.437 351.827 290.335 353.045 288.894 353.045Z" fill="#CECECE"/>
<path d="M293.132 353.045H221.936C220.538 353.045 219.394 351.827 219.394 350.338L228.208 296.2C228.208 294.711 229.353 293.493 230.751 293.493H301.947C303.345 293.493 304.49 294.711 304.49 296.2L295.675 350.338C295.675 351.827 294.573 353.045 293.132 353.045Z" fill="#1D243B"/>
<path d="M271.392 372.039L265.544 340.503H255.119C253.847 340.503 252.873 341.766 253.127 343.075L258.297 370.911C258.509 371.948 257.746 372.896 256.771 372.896H250.415C249.27 372.896 248.38 373.888 248.38 375.061H259.06H268.976C270.544 375.106 271.689 373.618 271.392 372.039Z" fill="#CECECE"/>
<path d="M271.943 375.107H261.136L254.864 341.27C254.78 340.864 255.076 340.548 255.458 340.548H267.62L273.638 372.986C273.808 374.069 273.002 375.107 271.943 375.107Z" fill="#1D243B"/>
<path d="M259.102 375.107H261.136L260.586 372.039H258.509L259.102 375.107Z" fill="#F4EFF0"/>
<path d="M259.102 375.107C260.162 375.107 260.967 374.069 260.755 372.941L260.586 372.039H258.297L259.102 375.107Z" fill="#CECECE"/>
<path d="M268.426 324.352C266.137 324.352 264.272 322.367 264.272 319.931C264.272 319.118 264.484 318.397 264.823 317.765C264.23 317.585 263.594 317.449 262.916 317.449C259.314 317.449 256.432 320.562 256.432 324.352C256.432 328.142 259.357 331.254 262.916 331.254C266.519 331.254 269.4 328.142 269.4 324.352C269.4 324.307 269.4 324.262 269.4 324.217C269.061 324.307 268.765 324.352 268.426 324.352Z" fill="#1D243B"/>
<path d="M219.139 401.273L184.219 411.063C174.727 413.725 165.107 406.552 160.487 394.687L214.605 382.911C219.351 381.603 224.225 384.626 225.454 389.679C226.725 394.777 223.886 399.965 219.139 401.273Z" fill="#3B323A"/>
<path d="M254.271 457.668L237.998 465.382L209.477 397.078C207.485 392.296 209.519 386.701 214.012 384.581C218.504 382.461 223.759 384.626 225.75 389.408L254.271 457.668Z" fill="#3B323A"/>
<path d="M133.28 387.603H314.745C316.949 387.603 318.771 385.664 318.771 383.318V379.257C318.771 376.911 316.949 374.971 314.745 374.971H133.28C131.077 374.971 129.254 376.911 129.254 379.257V383.318C129.254 385.664 131.034 387.603 133.28 387.603Z" fill="#1D243B"/>
<path d="M280.8 479.639L244.736 486.632C243.337 486.902 242.024 485.955 241.727 484.556L241.473 483.338C240.752 479.819 242.871 476.255 246.346 475.308L272.621 468.225C277.706 466.871 282.834 469.352 283.767 473.909L284.106 475.533C284.487 477.383 283.004 479.233 280.8 479.639Z" fill="#535452"/>
<path d="M282.199 476.165L241.897 483.97C241.812 483.97 241.727 484.015 241.642 484.015L241.769 484.556C242.066 486 243.38 486.902 244.778 486.632L280.842 479.639C283.046 479.233 284.572 477.383 284.19 475.533L284.148 475.398C283.555 475.759 282.919 476.03 282.199 476.165Z" fill="#FFFDFD"/>
<path d="M206.341 503.775L176.21 481.579C175.066 480.722 174.727 479.052 175.489 477.834L176.125 476.751C177.947 473.729 181.846 472.781 184.897 474.766L208.163 489.564C212.698 492.452 214.647 498.091 212.274 501.971L211.426 503.369C210.494 504.948 208.163 505.129 206.341 503.775Z" fill="#424441"/>
<path d="M209.647 502.377L175.956 477.563C175.871 477.518 175.828 477.428 175.744 477.383L175.489 477.834C174.769 479.052 175.066 480.721 176.21 481.579L206.341 503.775C208.163 505.129 210.494 504.948 211.426 503.369L211.511 503.234C210.875 503.099 210.24 502.783 209.647 502.377Z" fill="#CECECE"/>
<path d="M122.898 374.971H116.032C112.557 374.971 109.718 371.949 109.718 368.249V348.353H129.212V368.249C129.254 371.949 126.415 374.971 122.898 374.971Z" fill="#FF6161"/>
<path d="M111.922 351.06C107.387 351.06 103.743 354.985 103.743 359.767C103.743 364.55 107.43 368.475 111.922 368.475C116.414 368.475 120.101 364.55 120.101 359.767C120.101 354.985 116.414 351.06 111.922 351.06ZM111.922 366.58C108.404 366.58 105.523 363.512 105.523 359.767C105.523 356.023 108.404 352.955 111.922 352.955C115.439 352.955 118.321 356.023 118.321 359.767C118.278 363.557 115.439 366.58 111.922 366.58Z" fill="#F4A36C"/>
<path d="M122.898 374.971H116.032C112.557 374.971 109.718 371.949 109.718 368.249V348.353H129.212V368.249C129.254 371.949 126.415 374.971 122.898 374.971Z" fill="#F7BC8B"/>
<path d="M118.957 368.655C117.007 368.655 115.439 366.986 115.439 364.911V348.353H109.718V368.249C109.718 371.949 112.557 374.971 116.032 374.971H122.898C126.246 374.971 129 372.174 129.212 368.655H118.957Z" fill="#EFA573"/>
<path d="M199.772 374.971C200.196 373.798 200.408 372.535 200.408 371.227C200.408 365.226 195.874 360.399 190.237 360.399C184.601 360.399 180.066 365.226 180.066 371.227C180.066 372.535 180.278 373.798 180.702 374.971H199.772Z" fill="#FC9F6F"/>
<path opacity="0.77" d="M117.346 344.744C118.867 344.744 120.101 343.431 120.101 341.812C120.101 340.192 118.867 338.879 117.346 338.879C115.825 338.879 114.592 340.192 114.592 341.812C114.592 343.431 115.825 344.744 117.346 344.744Z" fill="#F2F2F2"/>
<path opacity="0.77" d="M122.432 335.947C124.702 335.947 126.542 333.987 126.542 331.57C126.542 329.154 124.702 327.194 122.432 327.194C120.161 327.194 118.321 329.154 118.321 331.57C118.321 333.987 120.161 335.947 122.432 335.947Z" fill="#F2F2F2"/>
<path d="M82.2143 307.704C88.6741 307.704 93.9108 302.13 93.9108 295.253C93.9108 288.376 88.6741 282.801 82.2143 282.801C75.7546 282.801 70.5179 288.376 70.5179 295.253C70.5179 302.13 75.7546 307.704 82.2143 307.704Z" fill="#65706C"/>
<path d="M666.525 0H340.207V319.113H666.525V0Z" fill="#F3F3F3"/>
<path d="M666.525 0H340.207V24.2905H666.525V0Z" fill="#E1E1E1"/>
<path d="M357.426 16.2826C359.556 16.2826 361.283 14.5697 361.283 12.4566C361.283 10.3436 359.556 8.63066 357.426 8.63066C355.296 8.63066 353.57 10.3436 353.57 12.4566C353.57 14.5697 355.296 16.2826 357.426 16.2826Z" fill="#FD8369"/>
<path d="M369.848 16.2826C371.978 16.2826 373.704 14.5697 373.704 12.4566C373.704 10.3436 371.978 8.63066 369.848 8.63066C367.718 8.63066 365.991 10.3436 365.991 12.4566C365.991 14.5697 367.718 16.2826 369.848 16.2826Z" fill="#FD8369"/>
<path d="M382.269 16.2826C384.399 16.2826 386.126 14.5697 386.126 12.4566C386.126 10.3436 384.399 8.63066 382.269 8.63066C380.139 8.63066 378.413 10.3436 378.413 12.4566C378.413 14.5697 380.139 16.2826 382.269 16.2826Z" fill="#FD8369"/>
<path d="M486.617 41.9967H356.171V112.11H486.617V41.9967Z" fill="white"/>
<path d="M486.617 128.749H356.171V198.862H486.617V128.749Z" fill="white"/>
<path d="M648.813 128.749H518.366V279.964H648.813V128.749Z" fill="white"/>
<path d="M688.364 47.0684H509.263V53.8306H688.364V47.0684Z" fill="#E1E1E1"/>
<path d="M688.364 66.1538H509.263V72.916H688.364V66.1538Z" fill="#E1E1E1"/>
<path d="M688.364 85.2392H509.263V92.0014H688.364V85.2392Z" fill="#E1E1E1"/>
<path d="M688.364 104.325H509.263V111.087H688.364V104.325Z" fill="#E1E1E1"/>
<path d="M607.154 317.289H600.293V327.61H607.154V317.289Z" fill="#DE8E68"/>
<path d="M688.005 360.887H681.144V371.209H688.005V360.887Z" fill="#DE8E68"/>
<path d="M650.651 221.773C642.355 221.773 605.316 258.298 602.087 264.437C598.858 270.577 599.8 318.668 599.8 318.668L607.782 320.181L620.741 275.381C626.392 274.714 650.158 269.642 662.445 259.81C674.732 249.934 661.279 227.912 661.279 227.912L650.651 221.773Z" fill="#6FC9CE"/>
<path d="M636.795 172.169C632.714 175.772 624.553 184.803 623.88 185.96C621.818 184.981 600.338 173.77 598.724 173.059C597.109 172.347 593.701 166.697 592.535 166.697C591.863 166.697 591.235 167.987 591.235 168.877C591.235 170.389 591.953 171.546 592.401 172.035C590.876 171.813 577.424 170.79 577.424 171.679C577.424 173.993 592.491 177.063 593.657 177.685C594.822 178.308 619.351 200.819 627.871 200.819C631.19 200.819 645.853 190.943 645.853 189.875C647.243 188.941 649.396 187.562 649.396 187.562V179.732L644.284 176.039C644.284 175.995 637.602 171.457 636.795 172.169Z" fill="#DE8E68"/>
<path d="M636.257 169.589C637.154 162.382 653.88 146.01 661.548 153.306C668.229 159.668 656.122 182.401 653.028 183.291C649.53 183.647 636.033 174.482 636.257 169.589Z" fill="#FEBF92"/>
<path d="M687.288 154.596C695.808 151.037 707.736 170.612 706.391 177.73C706.391 180.844 688.902 187.517 686.211 185.738C683.521 183.958 678.768 158.155 687.288 154.596Z" fill="#FED892"/>
<path d="M652.938 224.932L681.099 360.843H688.319L690.875 239.613C690.875 237.522 690.696 224.354 690.696 222.663C682.534 225.021 665.135 226.889 652.938 224.932Z" fill="#74D5DE"/>
<path d="M681.144 371.209H688.005V378.594H669.082L681.144 371.209Z" fill="black"/>
<path d="M600.293 327.61H607.154V334.995H588.231L600.293 327.61Z" fill="black"/>
<path d="M640.741 334.995H559.083V382.42H640.741V334.995Z" fill="#FD8369"/>
<path d="M354.018 385L322.494 384.644L311.463 344.471H364.332L354.018 385Z" fill="#FD8369"/>
<path d="M668.633 144.141C689.709 144.141 697.063 161.536 697.063 167.186C697.063 172.836 690.471 207.314 690.74 222.663C690.785 225.199 652.938 227.468 647.781 223.775C645.36 222.04 640.158 144.141 668.633 144.141Z" fill="#FECC92"/>
<path d="M706.391 177.73C712.355 186.806 711.996 207.715 711.996 210.874C711.996 214.032 689.754 242.416 687.826 242.416C686.66 241.259 683.431 237.744 683.431 236.677C684.463 234.808 697.691 206.113 700.068 204.067C698.992 202.777 689.53 188.051 689.126 185.604C697.422 184.225 705.449 180.755 706.391 177.73Z" fill="#DE8E68"/>
<path d="M706.391 177.73C707.736 170.612 696.839 149.969 687.288 154.596C678.992 158.644 683.521 183.958 686.211 185.738C689.44 187.117 705.135 182.446 706.391 177.73Z" fill="#FED892"/>
<path d="M663.252 139.871C662.803 141.25 662.579 145.521 663.073 147.434C663.117 147.523 672.041 148.19 673.028 146.633C673.072 145.343 675.225 133.865 678.14 130.306C678.409 129.905 677.826 128.793 677.826 128.793L667.467 133.064L663.252 139.871Z" fill="#D38466"/>
<path d="M676.66 129.772C677.333 130.661 678.185 131.062 678.947 131.062C680.651 131.062 684.597 129.505 684.597 123.944C684.597 119.94 680.651 117.893 680.651 115.98C680.651 114.156 681.144 114.112 681.144 112.599C681.144 111.843 680.382 109.352 678.005 109.352C676.66 109.352 676.167 110.464 674.821 110.464C673.342 110.464 671.996 107.617 669.754 107.617C668.23 107.617 666.795 109.04 665.18 109.04C663.342 109.04 662.086 106.326 659.53 106.326C656.884 106.326 655.943 108.684 654.911 108.684C653.611 108.684 653.387 108.328 652.086 108.328C651.279 108.328 648.813 109.752 648.813 112.332C648.813 114.156 649.575 117.137 653.387 117.137C655.629 117.137 656.884 120.652 658.857 120.652C659.62 120.652 660.292 120.029 660.472 120.34C661.234 121.675 662.804 125.323 662.804 125.323L669.934 129.282L676.66 129.772Z" fill="#FD8369"/>
<path d="M675.09 127.948C675.09 128.571 674.866 128.704 673.925 128.704C673.476 128.704 672.848 128.126 672.848 127.503C672.848 126.035 673.925 125.723 673.925 123.81C673.925 120.563 665.36 118.872 662.355 117.182C661.279 118.249 660.517 119.628 660.203 121.186L658.275 131.017C657.423 135.288 660.248 139.426 664.508 140.271C668.768 141.116 672.983 138.313 673.835 134.087L674.149 132.397C674.328 132.441 674.508 132.485 674.642 132.485C675.763 132.485 676.615 131.462 676.615 130.217C676.705 129.06 675.09 127.013 675.09 127.948Z" fill="#DE8E68"/>
<path d="M342.404 328.723C333.301 268.263 311.014 236.543 308.189 237.745C304.198 239.48 303.032 273.424 310.162 308.481C310.342 308.481 310.476 308.436 310.656 308.436C312.718 308.436 314.378 310.082 314.378 312.129C314.378 312.751 314.243 313.33 313.974 313.819C315.185 314.442 316.037 315.688 316.037 317.111C316.037 318.891 314.736 320.403 313.032 320.759C315.14 328.856 317.786 336.864 320.925 344.293C322.539 344.293 340.655 344.293 340.655 344.293C340.655 344.293 343.749 337.531 342.404 328.723Z" fill="#6FC9CE"/>
<path d="M395.094 264.615C389.578 264.615 383.659 280.364 377.112 280.364C375.677 280.364 374.736 278.807 374.736 277.339C374.736 275.915 379.265 260.255 379.265 252.648C379.265 251.981 379.22 251.269 379.13 250.557C378.413 251.002 377.516 251.269 376.619 251.269C373.928 251.269 371.731 249.089 371.731 246.42C371.731 244.062 373.39 242.149 375.632 241.659C373.346 238.768 369.982 236.721 365.408 236.721C359.624 236.721 351.462 241.837 351.462 249.756C351.462 251.981 352.135 257.631 352.135 262.747C352.135 291.753 329.221 296.113 329.221 328.233C329.221 334.995 332.987 342.425 334.108 344.249C334.108 344.249 353.301 344.471 355.139 344.471C356.978 344.471 371.911 319.736 373.615 317.111C380.117 307.146 401.731 296.202 401.731 272.401C401.731 269.064 400.52 264.615 395.094 264.615Z" fill="#74D5DE"/>
</svg>
