<svg width="50" height="50" viewBox="0 0 50 50" fill="none" xmlns="http://www.w3.org/2000/svg">
<mask id="mask0" mask-type="alpha" maskUnits="userSpaceOnUse" x="10" y="8" width="30" height="34">
<mask id="path-2-inside-1" mask-type="luminance" fill="white">
<path fill-rule="evenodd" clip-rule="evenodd" d="M35.0001 14.9231C35.9112 17.1351 36.1683 24.0588 36.2352 28.7692H36.25L40 33.3846V35.6923H10V33.3846L13.75 28.7692H13.8065C13.9086 23.9662 14.1953 16.8767 15 14.9231C16.6189 10.9928 19.6559 8 25 8C30.344 8 33.3812 10.9928 35.0001 14.9231ZM25 41.4616C27.549 41.4616 29.6154 39.3952 29.6154 36.8462L25 36.8462L20.3846 36.8462C20.3846 39.3952 22.451 41.4616 25 41.4616Z"/>
</mask>
<path d="M36.2352 28.7692L33.2355 28.8118L33.2774 31.7692H36.2352V28.7692ZM35.0001 14.9231L37.774 13.7805V13.7805L35.0001 14.9231ZM36.25 28.7692L38.5783 26.8775L37.6779 25.7692H36.25V28.7692ZM40 33.3846H43V32.3195L42.3283 31.4928L40 33.3846ZM40 35.6923V38.6923H43V35.6923H40ZM10 35.6923H7V38.6923H10V35.6923ZM10 33.3846L7.67166 31.4928L7 32.3195V33.3846H10ZM13.75 28.7692V25.7692H12.3221L11.4217 26.8775L13.75 28.7692ZM13.8065 28.7692V31.7692H16.7434L16.8058 28.833L13.8065 28.7692ZM15 14.9231L17.7739 16.0657L15 14.9231ZM29.6154 36.8462H32.6154V33.8462L29.6154 33.8462L29.6154 36.8462ZM25 36.8462L25 33.8462H25L25 36.8462ZM20.3846 36.8462L20.3846 33.8462L17.3846 33.8462V36.8462H20.3846ZM39.2349 28.7266C39.2011 26.3479 39.119 23.374 38.9265 20.6943C38.8304 19.3562 38.7042 18.0541 38.5356 16.9173C38.3764 15.8432 38.1489 14.6907 37.774 13.7805L32.2262 16.0657C32.3069 16.2615 32.4532 16.804 32.6005 17.7973C32.7385 18.7281 32.8516 19.8661 32.9419 21.1242C33.1225 23.637 33.2024 26.4802 33.2355 28.8118L39.2349 28.7266ZM36.25 25.7692H36.2352V31.7692H36.25V25.7692ZM42.3283 31.4928L38.5783 26.8775L33.9217 30.661L37.6717 35.2764L42.3283 31.4928ZM43 35.6923V33.3846H37V35.6923H43ZM10 38.6923H40V32.6923H10V38.6923ZM7 33.3846V35.6923H13V33.3846H7ZM11.4217 26.8775L7.67166 31.4928L12.3283 35.2764L16.0783 30.661L11.4217 26.8775ZM13.8065 25.7692H13.75V31.7692H13.8065V25.7692ZM12.2261 13.7805C11.8671 14.652 11.6603 15.7958 11.5172 16.8205C11.3624 17.9295 11.2421 19.2239 11.1472 20.5661C10.9571 23.2553 10.8586 26.285 10.8072 28.7055L16.8058 28.833C16.8565 26.4505 16.9524 23.5339 17.1323 20.9892C17.2224 19.7144 17.3311 18.57 17.4596 17.6501C17.5237 17.1906 17.5891 16.814 17.653 16.5208C17.6847 16.3756 17.7133 16.2633 17.7373 16.1802C17.7622 16.0942 17.776 16.0605 17.7739 16.0657L12.2261 13.7805ZM25 5C21.7299 5 18.983 5.92952 16.7869 7.59986C14.6256 9.24377 13.18 11.4646 12.2261 13.7805L17.7739 16.0657C18.4389 14.4512 19.3213 13.2105 20.4192 12.3755C21.4824 11.5669 22.9261 11 25 11V5ZM37.774 13.7805C36.8201 11.4646 35.3745 9.24375 33.2131 7.59985C31.017 5.92952 28.2701 5 25 5V11C27.0739 11 28.5177 11.5669 29.5808 12.3755C30.6788 13.2105 31.5612 14.4512 32.2262 16.0657L37.774 13.7805ZM26.6154 36.8462C26.6154 37.7383 25.8922 38.4616 25 38.4616V44.4616C29.2059 44.4616 32.6154 41.0521 32.6154 36.8462H26.6154ZM25 39.8462L29.6154 39.8462L29.6154 33.8462L25 33.8462L25 39.8462ZM20.3846 39.8462L25 39.8462L25 33.8462L20.3846 33.8462L20.3846 39.8462ZM25 38.4616C24.1078 38.4616 23.3846 37.7383 23.3846 36.8462H17.3846C17.3846 41.0521 20.7941 44.4616 25 44.4616V38.4616Z" fill="#B1B6BA" mask="url(#path-2-inside-1)"/>
</mask>
<g mask="url(#mask0)">
<rect width="50" height="50" fill="#B1B6BA"/>
</g>
</svg>
