<svg width="53" height="51" viewBox="0 0 53 51" fill="none" xmlns="http://www.w3.org/2000/svg">
<mask id="mask0" mask-type="alpha" maskUnits="userSpaceOnUse" x="8" y="8" width="34" height="34">
<path fill-rule="evenodd" clip-rule="evenodd" d="M25 38C30.3937 38 35.0202 34.7152 36.9882 30.0369L40.7225 31.4773C38.1754 37.6532 32.0953 42 25 42C15.6112 42 8 34.3888 8 25C8 15.6112 15.6112 8 25 8C29.8573 8 34.2388 10.0371 37.3368 13.3036L40.5402 11.4541C40.8851 11.255 41.3131 11.5194 41.2893 11.9169L40.6399 22.7906C40.6185 23.1488 40.2379 23.3685 39.917 23.2079L30.1755 18.3335C29.8193 18.1553 29.8043 17.6525 30.1492 17.4534L33.7426 15.3787C31.4338 13.2795 28.3663 12 25 12C17.8203 12 12 17.8203 12 25C12 32.1797 17.8203 38 25 38Z" fill="black"/>
</mask>
<g mask="url(#mask0)">
<rect width="50" height="50" fill="#2FC2DF"/>
</g>
</svg>
