<svg viewBox="0 0 512 512.001" xmlns="http://www.w3.org/2000/svg"><path d="m256 360.53125c51.832031 0 94-42.167969 94-94v-172.53125c0-51.832031-42.167969-94-94-94s-94 42.167969-94 94v172.53125c0 51.832031 42.167969 94 94 94zm0-340.53125c40.804688 0 74 33.195312 74 74v82.644531h-148v-82.644531c0-40.804688 33.195312-74 74-74zm-74 176.644531h148v69.886719c0 40.804688-33.195312 74-74 74s-74-33.195312-74-74zm0 0"/><path d="m231.667969 131.3125h48.664062c5.523438 0 10-4.476562 10-10s-4.476562-10-10-10h-48.664062c-5.523438 0-10 4.476562-10 10s4.476562 10 10 10zm0 0"/><path d="m231.667969 94.042969h48.664062c5.523438 0 10-4.476563 10-10 0-5.523438-4.476562-10-10-10h-48.664062c-5.523438 0-10 4.476562-10 10 0 5.523437 4.476562 10 10 10zm0 0"/><path d="m384.03125 256.53125c-5.519531 0-10 4.476562-10 10 0 65.082031-52.949219 118.03125-118.03125 118.03125s-118.03125-52.949219-118.03125-118.03125c0-5.523438-4.476562-10-10-10s-10 4.476562-10 10c0 65.992188 46.558594 121.308594 108.546875 134.851562v50.554688h-.785156c-27.605469 0-50.0625 22.457031-50.0625 50.0625 0 5.523438 4.476562 10 10 10h140.664062c5.523438 0 10-4.476562 10-10 0-27.601562-22.457031-50.0625-50.0625-50.0625h-.785156v-50.554688c61.992187-13.542968 108.546875-68.859374 108.546875-134.851562 0-5.523438-4.476562-10-10-10zm-69.40625 235.46875h-117.246094c4.128906-11.675781 15.277344-20.0625 28.351563-20.0625h60.542969c13.070312 0 24.21875 8.386719 28.351562 20.0625zm-49.140625-40.0625h-18.96875v-47.707031c3.136719.214843 6.296875.332031 9.484375.332031s6.347656-.117188 9.484375-.332031zm0 0"/><path d="m50 93.40625c-5.523438 0-10 4.476562-10 10v97.613281c0 5.519531 4.476562 10 10 10s10-4.480469 10-10v-97.613281c0-5.523438-4.476562-10-10-10zm0 0"/><path d="m130 186.027344c5.523438 0 10-4.476563 10-10v-47.632813c0-5.523437-4.476562-10-10-10s-10 4.476563-10 10v47.632813c0 5.523437 4.476562 10 10 10zm0 0"/><path d="m10 54c-5.523438 0-10 4.476562-10 10v166.332031c0 5.523438 4.476562 10 10 10s10-4.476562 10-10v-166.332031c0-5.523438-4.476562-10-10-10zm0 0"/><path d="m90 83.316406c-5.523438 0-10 4.476563-10 10v135.167969c0 5.523437 4.476562 10 10 10s10-4.476563 10-10v-135.167969c0-5.523437-4.476562-10-10-10zm0 0"/><path d="m462 93.40625c-5.523438 0-10 4.476562-10 10v97.613281c0 5.519531 4.476562 10 10 10s10-4.480469 10-10v-97.613281c0-5.523438-4.476562-10-10-10zm0 0"/><path d="m382 186.027344c5.523438 0 10-4.476563 10-10v-47.632813c0-5.523437-4.476562-10-10-10s-10 4.476563-10 10v47.632813c0 5.523437 4.476562 10 10 10zm0 0"/><path d="m502 54c-5.523438 0-10 4.476562-10 10v166.332031c0 5.523438 4.476562 10 10 10s10-4.476562 10-10v-166.332031c0-5.523438-4.476562-10-10-10zm0 0"/><path d="m422 218.488281c-2.628906 0-5.210938 1.0625-7.070312 2.921875-1.859376 1.871094-2.929688 4.441406-2.929688 7.078125 0 2.632813 1.070312 5.210938 2.929688 7.070313 1.859374 1.863281 4.441406 2.929687 7.070312 2.929687s5.210938-1.066406 7.070312-2.929687c1.859376-1.859375 2.929688-4.4375 2.929688-7.070313 0-2.636719-1.070312-5.207031-2.929688-7.078125-1.859374-1.859375-4.441406-2.921875-7.070312-2.921875zm0 0"/><path d="m422 83.316406c-5.523438 0-10 4.476563-10 10v92.710938c0 5.523437 4.476562 10 10 10s10-4.476563 10-10v-92.710938c0-5.523437-4.476562-10-10-10zm0 0"/><path d="m256 318.5c28.65625 0 51.972656-23.3125 51.972656-51.96875 0-5.523438-4.480468-10-10-10-5.523437 0-10 4.476562-10 10 0 17.625-14.34375 31.96875-31.972656 31.96875-5.523438 0-10 4.476562-10 10s4.476562 10 10 10zm0 0"/><path d="m297.96875 242c2.632812 0 5.210938-1.070312 7.070312-2.929688 1.859376-1.859374 2.929688-4.441406 2.929688-7.070312s-1.066406-5.210938-2.929688-7.070312c-1.859374-1.859376-4.4375-2.929688-7.070312-2.929688-2.628906 0-5.207031 1.070312-7.066406 2.929688-1.859375 1.859374-2.933594 4.441406-2.933594 7.070312s1.070312 5.210938 2.933594 7.070312c1.859375 1.859376 4.4375 2.929688 7.066406 2.929688zm0 0"/></svg>