<?xml version="1.0"?>
<svg xmlns="http://www.w3.org/2000/svg" viewBox="0 0 512 512" width="512" height="512"><g id="Streaming"><path d="M302.854,249.288l-74-48A8,8,0,0,0,216.5,208v96a8,8,0,0,0,12.354,6.712l74-48a8,8,0,0,0,0-13.424ZM232.5,289.275v-66.55L283.8,256Z"/><path d="M256,136A120,120,0,1,0,376,256,120.136,120.136,0,0,0,256,136Zm0,224A104,104,0,1,1,360,256,104.118,104.118,0,0,1,256,360Z"/><path d="M24,256c0-38.056,15.808-74.3,45.714-104.818a8,8,0,0,0-11.428-11.2C25.389,173.552,8,213.67,8,256c0,43.083,17.953,83.77,51.917,117.663a8,8,0,0,0,11.3-11.326C40.328,331.511,24,294.741,24,256Z"/><path d="M72,256c0-27.157,10.389-53.491,30.044-76.155a8,8,0,0,0-12.088-10.483C67.742,194.978,56,224.937,56,256s11.742,61.023,33.956,86.638a8,8,0,0,0,12.088-10.483C82.389,309.491,72,283.157,72,256Z"/><path d="M452.082,139.919a8,8,0,0,0-11.3,11.326C471.672,182.07,488,218.841,488,257.583c0,38.055-15.808,74.3-45.714,104.817a8,8,0,0,0,11.428,11.2C486.611,340.03,504,299.912,504,257.583,504,214.5,486.047,173.812,452.082,139.919Z"/><path d="M422.044,170.945a8,8,0,1,0-12.088,10.482c19.655,22.664,30.044,49,30.044,76.156s-10.389,53.49-30.044,76.155a8,8,0,1,0,12.088,10.482C444.258,318.605,456,288.646,456,257.583S444.258,196.56,422.044,170.945Z"/><path d="M120,248H96a8,8,0,0,0,0,16h24a8,8,0,0,0,0-16Z"/><path d="M424,256a8,8,0,0,0-8-8H392a8,8,0,0,0,0,16h24A8,8,0,0,0,424,256Z"/></g></svg>
