<svg width="139" height="41" viewBox="0 0 139 41" fill="none" xmlns="http://www.w3.org/2000/svg">
<path d="M46.43 10.18H49.642V28H46.43V10.18ZM52.4006 10.18H54.6666L59.0006 20.344V10.18H61.6846V28H59.5286L55.1726 17.352V28H52.4006V10.18ZM68.8768 28.242C67.2635 28.242 66.0535 27.7873 65.2468 26.878C64.4548 25.9687 64.0222 24.612 63.9488 22.808L66.7428 22.258C66.7868 23.3873 66.9628 24.2527 67.2708 24.854C67.5935 25.4407 68.0922 25.734 68.7668 25.734C69.2655 25.734 69.6322 25.5873 69.8668 25.294C70.1162 24.986 70.2408 24.5753 70.2408 24.062C70.2408 23.358 70.0795 22.764 69.7568 22.28C69.4488 21.7813 68.9575 21.2387 68.2828 20.652L66.0388 18.694C65.3495 18.1073 64.8288 17.4767 64.4768 16.802C64.1395 16.1273 63.9708 15.3207 63.9708 14.382C63.9708 12.9887 64.3742 11.9107 65.1808 11.148C66.0022 10.3707 67.1315 9.982 68.5688 9.982C70.1088 9.982 71.2088 10.422 71.8688 11.302C72.5435 12.1673 72.9322 13.3407 73.0348 14.822L70.2408 15.306C70.1968 14.338 70.0575 13.612 69.8228 13.128C69.6028 12.6293 69.1628 12.38 68.5028 12.38C68.0335 12.38 67.6668 12.5413 67.4028 12.864C67.1388 13.172 67.0068 13.568 67.0068 14.052C67.0068 14.624 67.1168 15.108 67.3368 15.504C67.5715 15.8853 67.9455 16.296 68.4588 16.736L70.6808 18.694C71.5168 19.4127 72.1695 20.1827 72.6388 21.004C73.1082 21.8253 73.3428 22.7787 73.3428 23.864C73.3428 24.7147 73.1522 25.47 72.7708 26.13C72.4042 26.79 71.8835 27.3107 71.2088 27.692C70.5342 28.0587 69.7568 28.242 68.8768 28.242ZM75.3479 10.18H78.5599V28H75.3479V10.18ZM85.7845 28.242C84.0979 28.242 82.8805 27.7213 82.1325 26.68C81.3992 25.624 81.0325 24.106 81.0325 22.126V16.142C81.0325 14.1033 81.4139 12.5707 82.1765 11.544C82.9392 10.5027 84.2519 9.982 86.1145 9.982C87.8745 9.982 89.1359 10.422 89.8985 11.302C90.6612 12.1673 91.0425 13.458 91.0425 15.174V16.098H87.9405V15.086C87.9405 14.4407 87.8965 13.9273 87.8085 13.546C87.7352 13.1647 87.5665 12.8713 87.3025 12.666C87.0532 12.4607 86.6719 12.358 86.1585 12.358C85.6159 12.358 85.2125 12.49 84.9485 12.754C84.6845 13.018 84.5085 13.3553 84.4205 13.766C84.3472 14.1767 84.3105 14.712 84.3105 15.372V22.83C84.3105 23.842 84.4425 24.5973 84.7065 25.096C84.9852 25.5947 85.4985 25.844 86.2465 25.844C86.9799 25.844 87.4859 25.58 87.7645 25.052C88.0579 24.524 88.2045 23.732 88.2045 22.676V21.004H86.2905V18.958H91.1305V28H89.0185L88.7985 26.262C88.2412 27.582 87.2365 28.242 85.7845 28.242ZM93.6516 10.18H96.8856V17.616H100.516V10.18H103.772V28H100.516V19.948H96.8856V28H93.6516V10.18ZM108.28 12.578H105.442V10.18H114.308V12.578H111.536V28H108.28V12.578ZM115.93 10.18H119.164V25.778H123.498V28H115.93V10.18ZM126.58 21.202L122.972 10.18H126.008L128.208 17.242L130.276 10.18H133.246L129.682 21.202V28H126.58V21.202Z" fill="black"/>
<path d="M19.4352 17.0014C18.4061 15.5561 17.323 14.1847 16.1882 12.9204L16.4992 16.0982C17.2594 16.3955 18.169 16.6884 19.255 16.9555C19.297 16.9658 19.3581 16.9811 19.4352 17.0014ZM18.789 18.5108C18.7888 18.5107 18.7828 18.5119 18.7716 18.5144C18.7835 18.5122 18.7891 18.5109 18.789 18.5108ZM15.8754 15.8394L15.351 14.0667C15.5533 14.7505 15.7267 15.3367 15.8754 15.8394C15.8754 15.8394 15.8754 15.8394 15.8754 15.8394Z" fill="#5759A9" stroke="#5759A9" stroke-width="10"/>
</svg>
