<svg width="131" height="35" viewBox="0 0 131 35" fill="none" xmlns="http://www.w3.org/2000/svg">
<path d="M43.43 10.18H46.642V28H43.43V10.18ZM49.4006 10.18H51.6666L56.0006 20.344V10.18H58.6846V28H56.5286L52.1726 17.352V28H49.4006V10.18ZM65.8769 28.242C64.2635 28.242 63.0535 27.7873 62.2469 26.878C61.4549 25.9687 61.0222 24.612 60.9489 22.808L63.7429 22.258C63.7869 23.3873 63.9629 24.2527 64.2709 24.854C64.5935 25.4407 65.0922 25.734 65.7669 25.734C66.2655 25.734 66.6322 25.5873 66.8669 25.294C67.1162 24.986 67.2409 24.5753 67.2409 24.062C67.2409 23.358 67.0795 22.764 66.7569 22.28C66.4489 21.7813 65.9575 21.2387 65.2829 20.652L63.0389 18.694C62.3495 18.1073 61.8289 17.4767 61.4769 16.802C61.1395 16.1273 60.9709 15.3207 60.9709 14.382C60.9709 12.9887 61.3742 11.9107 62.1809 11.148C63.0022 10.3707 64.1315 9.982 65.5689 9.982C67.1089 9.982 68.2089 10.422 68.8689 11.302C69.5435 12.1673 69.9322 13.3407 70.0349 14.822L67.2409 15.306C67.1969 14.338 67.0575 13.612 66.8229 13.128C66.6029 12.6293 66.1629 12.38 65.5029 12.38C65.0335 12.38 64.6669 12.5413 64.4029 12.864C64.1389 13.172 64.0069 13.568 64.0069 14.052C64.0069 14.624 64.1169 15.108 64.3369 15.504C64.5715 15.8853 64.9455 16.296 65.4589 16.736L67.6809 18.694C68.5169 19.4127 69.1695 20.1827 69.6389 21.004C70.1082 21.8253 70.3429 22.7787 70.3429 23.864C70.3429 24.7147 70.1522 25.47 69.7709 26.13C69.4042 26.79 68.8835 27.3107 68.2089 27.692C67.5342 28.0587 66.7569 28.242 65.8769 28.242ZM72.348 10.18H75.56V28H72.348V10.18ZM82.7846 28.242C81.0979 28.242 79.8806 27.7213 79.1326 26.68C78.3992 25.624 78.0326 24.106 78.0326 22.126V16.142C78.0326 14.1033 78.4139 12.5707 79.1766 11.544C79.9392 10.5027 81.2519 9.982 83.1146 9.982C84.8746 9.982 86.1359 10.422 86.8986 11.302C87.6612 12.1673 88.0426 13.458 88.0426 15.174V16.098H84.9406V15.086C84.9406 14.4407 84.8966 13.9273 84.8086 13.546C84.7352 13.1647 84.5666 12.8713 84.3026 12.666C84.0532 12.4607 83.6719 12.358 83.1586 12.358C82.6159 12.358 82.2126 12.49 81.9486 12.754C81.6846 13.018 81.5086 13.3553 81.4206 13.766C81.3472 14.1767 81.3106 14.712 81.3106 15.372V22.83C81.3106 23.842 81.4426 24.5973 81.7066 25.096C81.9852 25.5947 82.4986 25.844 83.2466 25.844C83.9799 25.844 84.4859 25.58 84.7646 25.052C85.0579 24.524 85.2046 23.732 85.2046 22.676V21.004H83.2906V18.958H88.1306V28H86.0186L85.7986 26.262C85.2412 27.582 84.2366 28.242 82.7846 28.242ZM90.6516 10.18H93.8856V17.616H97.5156V10.18H100.772V28H97.5156V19.948H93.8856V28H90.6516V10.18ZM105.28 12.578H102.442V10.18H111.308V12.578H108.536V28H105.28V12.578ZM112.93 10.18H116.164V25.778H120.498V28H112.93V10.18ZM123.58 21.202L119.972 10.18H123.008L125.208 17.242L127.276 10.18H130.246L126.682 21.202V28H123.58V21.202Z" fill="black" fill-opacity="0.85"/>
<path d="M16.8133 13.4158C16.3223 12.8529 15.8217 12.3111 15.3117 11.7925L15.4171 12.9739C15.831 13.1229 16.2946 13.2715 16.8133 13.4158ZM17.7403 15.0674C17.7402 15.0673 17.735 15.0682 17.7253 15.0702C17.7356 15.0685 17.7404 15.0675 17.7403 15.0674Z" fill="#5759A9" stroke="#5759A9" stroke-width="10"/>
</svg>
